<svg width="32" height="32" viewBox="0 0 32 32" fill="none" xmlns="http://www.w3.org/2000/svg">
<path d="M15.998 0.61792C7.164 0.61792 0 7.80992 0 16.6819C0 23.7779 4.584 29.7979 10.944 31.9239C11.744 32.0719 12.036 31.5759 12.036 31.1499C12.036 30.7679 12.022 29.7579 12.014 28.4179C7.564 29.3879 6.624 26.2639 6.624 26.2639C5.898 24.4079 4.848 23.9139 4.848 23.9139C3.394 22.9179 4.956 22.9379 4.956 22.9379C6.562 23.0519 7.406 24.5939 7.406 24.5939C8.834 27.0479 11.152 26.3399 12.064 25.9279C12.208 24.8899 12.622 24.1819 13.08 23.7799C9.528 23.3739 5.792 21.9959 5.792 15.8419C5.792 14.0879 6.416 12.6539 7.44 11.5299C7.274 11.1239 6.726 9.48992 7.596 7.27992C7.596 7.27992 8.94 6.84792 11.996 8.92592C13.272 8.56992 14.64 8.39192 16.002 8.38592C17.36 8.39392 18.73 8.56992 20.008 8.92792C23.062 6.84992 24.404 7.28192 24.404 7.28192C25.276 9.49392 24.728 11.1259 24.564 11.5319C25.59 12.6559 26.208 14.0899 26.208 15.8439C26.208 22.0139 22.468 23.3719 18.904 23.7699C19.478 24.2659 19.99 25.2459 19.99 26.7439C19.99 28.8919 19.97 30.6239 19.97 31.1499C19.97 31.5799 20.258 32.0799 21.07 31.9219C27.42 29.7939 32 23.7759 32 16.6819C32 7.80992 24.836 0.61792 15.998 0.61792Z" fill="white"/>
</svg>
