<svg width="31" height="31" viewBox="0 0 31 31" fill="none" xmlns="http://www.w3.org/2000/svg">
<g clip-path="url(#clip0)">
<path d="M7.58033 9.64136H0.871582V30.2664H7.58033V9.64136Z" fill="white"/>
<path d="M25.8541 9.88323C25.7828 9.86073 25.7153 9.83636 25.6403 9.81573C25.5503 9.79511 25.4603 9.77823 25.3685 9.76323C25.0122 9.69198 24.6222 9.64136 24.1647 9.64136C20.2535 9.64136 17.7728 12.4857 16.9553 13.5845V9.64136H10.2466V30.2664H16.9553V19.0164C16.9553 19.0164 22.0253 11.9551 24.1647 17.1414C24.1647 21.7707 24.1647 30.2664 24.1647 30.2664H30.8716V16.3482C30.8716 13.232 28.736 10.6351 25.8541 9.88323Z" fill="white"/>
<path d="M4.15283 6.82886C5.96502 6.82886 7.43408 5.35979 7.43408 3.54761C7.43408 1.73542 5.96502 0.266357 4.15283 0.266357C2.34065 0.266357 0.871582 1.73542 0.871582 3.54761C0.871582 5.35979 2.34065 6.82886 4.15283 6.82886Z" fill="white"/>
</g>
<defs>
<clipPath id="clip0">
<rect width="30" height="31" fill="white" transform="translate(0.871582 -0.000732422)"/>
</clipPath>
</defs>
</svg>
