<svg width="340" height="170" viewBox="0 0 340 170" fill="none" xmlns="http://www.w3.org/2000/svg">
<g clip-path="url(#clip0)">
<path d="M26.6098 38.138H74.7614C88.8943 38.2563 99.1355 42.3191 105.485 50.3195C111.834 58.32 113.929 69.2475 111.773 83.1021C110.936 89.4329 109.078 95.6419 106.204 101.733C103.448 107.823 99.6168 113.316 94.7047 118.214C88.7146 124.423 82.3075 128.364 75.48 130.037C68.6526 131.71 61.5844 132.545 54.279 132.545H32.7186L25.8911 166.581H0.916992L26.6098 38.138V38.138ZM47.6312 58.56L36.851 112.302C37.5697 112.42 38.2884 112.481 39.007 112.481C39.8444 112.481 40.6851 112.481 41.5224 112.481C53.0213 112.599 62.6048 111.467 70.2696 109.077C77.9344 106.569 83.0872 97.8524 85.7212 82.923C87.8773 70.3832 85.7212 63.1568 79.2531 61.2471C72.9036 59.3374 64.9405 58.4417 55.357 58.56C53.9196 58.6783 52.5433 58.7391 51.2246 58.7391C50.0279 58.7391 48.7702 58.7391 47.4515 58.7391L47.6312 58.56" fill="#191919"/>
<path d="M140.222 3.9223H165.017L158.009 38.138H180.288C192.506 38.378 201.608 40.886 207.598 45.6619C213.707 50.4379 215.504 59.5165 212.988 72.8912L200.951 132.545H175.797L187.296 75.5783C188.492 69.6058 188.133 65.3673 186.218 62.8594C184.302 60.3514 180.17 59.0974 173.82 59.0974L153.877 58.9183L139.144 132.545H114.35L140.222 3.9223Z" fill="#191919"/>
<path d="M239.614 38.138H287.765C301.898 38.2563 312.139 42.3191 318.489 50.3195C324.838 58.32 326.933 69.2475 324.777 83.1021C323.94 89.4329 322.082 95.6419 319.208 101.733C316.451 107.823 312.621 113.316 307.709 118.214C301.719 124.423 295.311 128.364 288.484 130.037C281.657 131.71 274.588 132.545 267.283 132.545H245.722L238.895 166.581H213.921L239.614 38.138V38.138ZM260.635 58.56L249.855 112.302C250.574 112.42 251.292 112.481 252.011 112.481C252.848 112.481 253.689 112.481 254.526 112.481C266.025 112.599 275.609 111.467 283.274 109.077C290.938 106.569 296.091 97.8524 298.725 82.923C300.881 70.3832 298.725 63.1568 292.257 61.2471C285.908 59.3374 277.944 58.4417 268.361 58.56C266.924 58.6783 265.547 58.7391 264.228 58.7391C263.032 58.7391 261.774 58.7391 260.455 58.7391L260.635 58.56" fill="#191919"/>
</g>
<defs>
<clipPath id="clip0">
<rect width="339" height="169" fill="white" transform="translate(0.916992 0.542297)"/>
</clipPath>
</defs>
</svg>
