<svg width="65" height="65" viewBox="0 0 65 65" fill="none" xmlns="http://www.w3.org/2000/svg">
<path d="M32.8574 64.6654C50.5348 64.6654 64.8574 50.3427 64.8574 32.6654C64.8574 14.9881 50.5348 0.665405 32.8574 0.665405C15.1801 0.665405 0.857422 14.9881 0.857422 32.6654C0.857422 50.3427 15.1801 64.6654 32.8574 64.6654ZM15.5001 31.9721L46.3534 20.0761C47.7854 19.5587 49.0361 20.4254 48.5721 22.5907L48.5748 22.5881L43.3214 47.3374C42.9321 49.0921 41.8894 49.5187 40.4308 48.6921L32.4308 42.7961L28.5721 46.5134C28.1454 46.9401 27.7854 47.3001 26.9588 47.3001L27.5268 39.1587L42.3534 25.7641C42.9988 25.1961 42.2094 24.8761 41.3588 25.4414L23.0361 36.9774L15.1374 34.5134C13.4228 33.9694 13.3854 32.7987 15.5001 31.9721V31.9721Z" fill="white"/>
</svg>
