<svg width="44" height="29" viewBox="0 0 44 29" fill="none" xmlns="http://www.w3.org/2000/svg">
<path d="M18.102 13.5822C19.015 13.1282 19.7053 12.6224 20.1784 12.0759C21.02 11.0917 21.4352 9.78655 21.4352 8.16876C21.4352 6.59448 21.02 5.24859 20.1894 4.12021C18.8033 2.28219 16.4573 1.34142 13.1406 1.29248H0V27.8106H12.2522C13.6329 27.8106 14.9117 27.6937 16.0943 27.4544C17.2769 27.2124 18.3 26.7693 19.1663 26.1221C19.9364 25.5593 20.5799 24.8605 21.0915 24.0367C21.9 22.7914 22.3043 21.3803 22.3043 19.8087C22.3043 18.2861 21.9495 16.9891 21.2455 15.9233C20.5332 14.8574 19.4881 14.0771 18.102 13.5822ZM5.42069 5.89842H11.3392C12.64 5.89842 13.7126 6.03709 14.5542 6.3117C15.5278 6.71139 16.0145 7.52437 16.0145 8.76422C16.0145 9.87628 15.6433 10.6539 14.909 11.0917C14.1691 11.5294 13.2093 11.7497 12.0322 11.7497H5.42069V5.89842ZM14.7797 22.7425C14.1251 23.0551 13.2038 23.2101 12.024 23.2101H5.42069V16.1381H12.1147C13.2808 16.1462 14.1884 16.2985 14.8375 16.584C15.9925 17.1006 16.5673 18.0468 16.5673 19.4307C16.5673 21.0621 15.9733 22.1606 14.7797 22.7425Z" fill="white"/>
<path d="M39.7709 2.52954H28.1182V5.83037H39.7709V2.52954Z" fill="white"/>
<path d="M43.8191 15.5563C43.577 14.0201 43.0435 12.6687 42.2129 11.5023C41.3026 10.1809 40.1475 9.21293 38.7421 8.60116C37.3423 7.98667 35.7664 7.67943 34.0118 7.68215C31.0663 7.68215 28.6736 8.593 26.8227 10.4011C24.9773 12.2147 24.0532 14.8222 24.0532 18.2209C24.0532 21.8453 25.0736 24.4636 27.1252 26.0705C29.1686 27.6802 31.5283 28.4823 34.207 28.4823C37.4495 28.4823 39.9715 27.5279 41.7729 25.6246C42.9252 24.4228 43.577 23.2401 43.72 22.0791H38.3516C38.0408 22.6528 37.6806 23.1014 37.268 23.4277C36.52 24.0259 35.5464 24.325 34.3528 24.325C33.217 24.325 32.2544 24.0775 31.4513 23.5854C30.1257 22.7969 29.4327 21.4157 29.3446 19.4498H43.9951C44.0171 17.7559 43.9621 16.4535 43.8191 15.5563ZM29.4767 16.0647C29.6692 14.7895 30.1367 13.7781 30.8793 13.0304C31.6218 12.2854 32.6724 11.9101 34.0173 11.9074C35.2576 11.9074 36.2945 12.2582 37.1388 12.9624C37.9721 13.672 38.4424 14.7025 38.5386 16.0647H29.4767Z" fill="white"/>
</svg>
