<svg width="117" height="176" viewBox="0 0 117 176" fill="none" xmlns="http://www.w3.org/2000/svg">
<path d="M29.2559 176C45.3986 176 58.5 162.859 58.5 146.667V117.333H29.2559C13.1131 117.333 0.0117188 130.475 0.0117188 146.667C0.0117188 162.859 13.1131 176 29.2559 176Z" fill="white" fill-opacity="0.1"/>
<path d="M0.0117188 88C0.0117188 71.808 13.1131 58.6667 29.2559 58.6667H58.5V117.333H29.2559C13.1131 117.333 0.0117188 104.192 0.0117188 88Z" fill="white" fill-opacity="0.1"/>
<path d="M0.0126953 29.3333C0.0126953 13.1413 13.1141 0 29.2568 0H58.501V58.6667H29.2568C13.1141 58.6667 0.0126953 45.5253 0.0126953 29.3333Z" fill="white" fill-opacity="0.1"/>
<path d="M58.5 0H87.7442C103.887 0 116.988 13.1413 116.988 29.3333C116.988 45.5253 103.887 58.6667 87.7442 58.6667H58.5V0Z" fill="white" fill-opacity="0.05"/>
<path d="M116.988 88C116.988 104.192 103.887 117.333 87.7442 117.333C71.6014 117.333 58.5 104.192 58.5 88C58.5 71.808 71.6014 58.6667 87.7442 58.6667C103.887 58.6667 116.988 71.808 116.988 88Z" fill="white" fill-opacity="0.05"/>
</svg>
