<svg width="162" height="229" viewBox="0 0 162 229" fill="none" xmlns="http://www.w3.org/2000/svg">
<g clip-path="url(#clip0)">
<path d="M14.7426 210.599L0 45.01H162L147.241 210.573L80.9006 228.99L14.7426 210.599Z" fill="black" fill-opacity="0.5"/>
<path d="M81 214.912L134.607 200.03L147.219 58.5493H81V214.912Z" fill="black"/>
<path d="M81 119.964H54.1633L52.3098 99.1673H81V78.8583H30.1455L30.631 84.3069L35.6156 140.272H81V119.964ZM81 172.708L80.9116 172.732L58.3243 166.624L56.8804 150.427H36.5217L39.3631 182.315L80.9067 193.863L81 193.837V172.708Z" fill="white" fill-opacity="0.1"/>
<path d="M15.0723 20.0102H25.3787V30.2069H34.8066V20.0102H45.1134V50.8884H34.807V40.5486H25.3791V50.8884H15.0732V20.0102H15.0723V20.0102ZM58.6667 30.2498H49.5938V20.0102H78.0518V30.2498H68.9745V50.8884H58.6676L58.6667 30.2498V30.2498ZM82.5679 20.0102H93.3142L99.9249 30.8599L106.529 20.0102H117.28V50.8884H107.016V35.5835L99.9254 46.5624H99.7485L92.6523 35.5835V50.8884H82.5683V20.0102H82.5679ZM122.409 20.0102H132.719V40.6818H147.213V50.8884H122.409V20.0102Z" fill="white" fill-opacity="0.1"/>
<path d="M80.9297 119.964V140.272H105.903L103.549 166.611L80.9297 172.725V193.853L122.506 182.315L122.811 178.883L127.577 125.417L128.072 119.964H122.606H80.9297ZM80.9297 78.8583V99.1673H129.917L130.324 94.6024L131.248 84.3069L131.733 78.8583H80.9297Z" fill="white" fill-opacity="0.05"/>
</g>
<defs>
<clipPath id="clip0">
<rect width="162" height="229" fill="white"/>
</clipPath>
</defs>
</svg>
