<svg width="170" height="120" viewBox="0 0 170 120" fill="none" xmlns="http://www.w3.org/2000/svg">
<path d="M0.622475 97.779L20.2134 85.923C23.9928 92.6241 27.431 98.2938 35.6778 98.2938C43.5829 98.2938 48.5668 95.2015 48.5668 83.1736V1.37549H72.6243V83.5137C72.6243 108.431 58.0185 119.773 36.7091 119.773C17.464 119.773 6.29267 109.805 0.62207 97.777" fill="white" fill-opacity="0.1"/>
<path d="M85.6914 95.2011L105.28 83.8595C110.436 92.2807 117.138 98.4665 128.995 98.4665C138.963 98.4665 145.32 93.4827 145.32 86.6089C145.32 78.3604 138.79 75.4387 127.792 70.6288L121.779 68.0493C104.422 60.6614 92.9078 51.382 92.9078 31.7915C92.9078 13.748 106.655 0 128.136 0C143.43 0 154.428 5.32765 162.332 19.2471L143.601 31.2755C139.477 23.8868 135.01 20.966 128.137 20.966C121.091 20.966 116.623 25.4338 116.623 31.2755C116.623 38.493 121.091 41.4151 131.4 45.8833L137.414 48.4608C157.864 57.2253 169.378 66.1601 169.378 86.2651C169.378 107.919 152.366 119.775 129.511 119.775C107.171 119.775 92.7363 109.121 85.6918 95.2011" fill="white" fill-opacity="0.1"/>
</svg>
