<svg width="31" height="31" viewBox="0 0 31 31" fill="none" xmlns="http://www.w3.org/2000/svg">
<path d="M15.5039 0.26709H15.4961C6.94981 0.26709 0 6.99459 0 15.2671C0 18.5483 1.09275 21.5896 2.95081 24.059L1.01913 29.6315L6.97694 27.7883C9.42788 29.3596 12.3516 30.2671 15.5039 30.2671C24.0502 30.2671 31 23.5377 31 15.2671C31 6.99647 24.0502 0.26709 15.5039 0.26709ZM24.5229 21.449C24.149 22.4708 22.6649 23.3183 21.4811 23.5658C20.6712 23.7327 19.6133 23.8658 16.0522 22.4371C11.4971 20.6108 8.56375 16.1315 8.33513 15.8408C8.11619 15.5502 6.4945 13.469 6.4945 11.3165C6.4945 9.16397 7.62406 8.11584 8.07938 7.66584C8.45331 7.29647 9.07137 7.12771 9.66425 7.12771C9.85606 7.12771 10.0285 7.13709 10.1835 7.14459C10.6388 7.16334 10.8674 7.18959 11.1677 7.88522C11.5417 8.75709 12.4523 10.9096 12.5608 11.1308C12.6712 11.3521 12.7817 11.6521 12.6267 11.9427C12.4814 12.2427 12.3535 12.3758 12.1249 12.6308C11.8962 12.8858 11.6792 13.0808 11.4506 13.3546C11.2414 13.5927 11.005 13.8477 11.2685 14.2883C11.532 14.7196 12.4426 16.1577 13.7834 17.3127C15.5136 18.8033 16.9163 19.2796 17.4181 19.4821C17.7921 19.6321 18.2377 19.5965 18.5109 19.3152C18.8577 18.9533 19.2859 18.3533 19.7218 17.7627C20.0318 17.339 20.4232 17.2865 20.8339 17.4365C21.2524 17.5771 23.467 18.6365 23.9223 18.8558C24.3776 19.0771 24.6779 19.1821 24.7884 19.3677C24.8969 19.5533 24.8969 20.4252 24.5229 21.449Z" fill="white"/>
</svg>
