<svg width="564" height="112" viewBox="0 0 564 112" fill="none" xmlns="http://www.w3.org/2000/svg">
<path d="M123.577 20.384C123.487 20.4733 123.353 20.6521 123.175 20.9202C122.996 21.0989 122.817 21.1883 122.638 21.1883C122.37 21.5457 122.102 21.8585 121.834 22.1266C121.655 22.3947 121.477 22.6181 121.298 22.7968C121.119 22.9755 120.985 23.1096 120.896 23.1989C120.628 23.5564 120.315 23.8692 119.957 24.1373C119.689 24.4053 119.377 24.7181 119.019 25.0756C118.572 25.5224 118.126 26.0586 117.679 26.6841C117.232 27.3097 116.74 27.8905 116.204 28.4267C115.4 29.231 114.685 30.1246 114.06 31.1076C113.523 32.0906 112.898 33.0289 112.183 33.9226C109.145 37.9439 106.464 42.01 104.14 46.1207C103.693 46.9249 103.157 47.6845 102.532 48.3994C101.995 49.1143 101.504 49.9186 101.057 50.8123C100.521 51.7953 99.9401 52.7336 99.3145 53.6272C98.7783 54.5208 98.1528 55.4145 97.4379 56.3081C96.4549 57.7379 95.5166 59.2124 94.6229 60.7316C93.8187 62.1614 92.9697 63.5912 92.0761 65.021C91.0931 66.6296 90.0207 68.1935 88.859 69.7126C87.7866 71.2318 86.6696 72.751 85.5079 74.2702C85.0611 74.9851 84.3908 75.7893 83.4972 76.683C82.6929 77.5766 82.1567 78.4256 81.8887 79.2298C81.6206 80.1235 81.1291 80.9277 80.4142 81.6426C79.6992 82.3576 79.0737 83.0725 78.5375 83.7874C77.7332 84.8597 76.8843 85.9321 75.9907 87.0045C75.1864 87.9875 74.3821 88.9705 73.5778 89.9535C71.7012 92.0088 69.8693 94.1535 68.082 96.3876C66.2947 98.6217 64.5521 100.9 62.8542 103.224C62.6755 103.492 62.3627 103.849 61.9159 104.296C61.4691 104.654 61.2457 104.967 61.2457 105.235C61.2457 105.235 61.067 105.413 60.7095 105.771L60.1733 106.307C59.8159 106.664 59.5031 107.022 59.235 107.379C59.0563 107.826 58.7882 108.228 58.4307 108.586C58.252 108.764 58.0733 108.899 57.8946 108.988C57.8052 109.167 57.6711 109.345 57.4924 109.524C57.3137 109.703 57.135 109.971 56.9562 110.328C56.8669 110.686 56.6881 110.954 56.4201 111.133C55.6158 111.49 54.8562 111.535 54.1413 111.267C53.4264 111.088 52.9796 110.507 52.8008 109.524C52.6221 108.63 52.8455 107.781 53.4711 106.977C54.186 106.262 54.7668 105.592 55.2136 104.967C55.7498 104.252 56.1966 103.537 56.5541 102.822C57.0009 102.018 57.5371 101.303 58.1626 100.677C58.9669 99.426 59.7712 98.1749 60.5755 96.9238C61.3797 95.5834 62.0946 94.2429 62.7202 92.9024C62.9883 92.1875 63.167 91.5173 63.2564 90.8918C63.4351 90.2662 63.6585 89.596 63.9266 88.8811L64.8649 87.2726C65.133 86.8257 65.267 86.3342 65.267 85.7981C65.267 85.2619 65.3564 84.7704 65.5351 84.3236C66.0713 81.9107 66.8756 79.5873 67.9479 77.3532C69.0203 75.1191 69.9139 72.8404 70.6289 70.5169C71.165 68.9977 71.6565 67.4785 72.1033 65.9594C72.6395 64.4402 73.2204 62.8763 73.8459 61.2678C74.2927 59.9273 74.7396 58.5869 75.1864 57.2464C75.7226 55.8166 76.2588 54.4315 76.7949 53.091C77.1524 52.108 77.5992 50.991 78.1354 49.7399C78.7609 48.4888 79.029 47.3718 78.9397 46.3888C78.4928 46.8356 78.0907 47.3718 77.7332 47.9973C77.3758 48.6229 77.063 49.2037 76.7949 49.7399C76.5268 50.1867 76.2141 50.5888 75.8566 50.9463C75.5885 51.3038 75.3651 51.7059 75.1864 52.1527C75.1864 52.5102 75.097 52.6889 74.9183 52.6889C74.8289 52.6889 74.7396 52.7783 74.6502 52.957C74.2928 53.5825 73.9353 54.2081 73.5778 54.8336C73.3098 55.3698 72.9523 55.9507 72.5055 56.5762C71.7906 57.6486 71.0757 58.7209 70.3608 59.7933C69.6459 60.8656 68.9309 62.0274 68.216 63.2785C68.0373 63.6359 67.8139 63.9487 67.5458 64.2168C67.2777 64.4849 67.0096 64.753 66.7415 65.021C66.5628 65.1998 66.3841 65.5126 66.2054 65.9594C66.116 66.3168 65.9819 66.5849 65.8032 66.7636L63.9266 69.7126C63.4798 70.1595 63.1223 70.651 62.8542 71.1871C62.5861 71.6339 62.2287 72.0808 61.7819 72.5276C60.7989 73.5106 59.9946 74.5829 59.3691 75.7447C59.0116 76.5489 58.4754 77.3085 57.7605 78.0234C57.135 78.7383 56.5541 79.4533 56.0179 80.1682L53.8732 82.581C53.6945 82.9384 53.4711 83.3852 53.203 83.9214C53.0242 84.4576 52.7115 84.7257 52.2647 84.7257C51.8178 85.0831 51.371 85.5746 50.9242 86.2002C50.5667 86.7364 50.1646 87.3172 49.7178 87.9428C49.5391 88.3002 49.2263 88.613 48.7795 88.8811C48.422 89.0598 48.0646 89.3279 47.7071 89.6854C47.6178 89.6854 47.2603 89.9981 46.6348 90.6237C46.0986 91.2492 45.8305 91.6067 45.8305 91.696C45.8305 92.0535 45.4283 92.4556 44.6241 92.9024C43.9092 93.3493 43.4624 93.662 43.2836 93.8408L41.1389 95.8514L35.1069 100.945L32.6941 103.09C32.2472 103.447 31.8004 103.76 31.3536 104.028C30.9961 104.207 30.594 104.52 30.1472 104.967C29.9685 105.145 29.7451 105.279 29.477 105.369C29.2089 105.458 28.9855 105.592 28.8067 105.771C28.0918 106.396 27.2876 106.754 26.3939 106.843C25.5897 107.022 24.9194 106.62 24.3832 105.637C23.9364 104.743 23.9811 103.939 24.5173 103.224C25.0535 102.509 25.6343 101.839 26.2599 101.213C26.8854 100.409 27.4663 99.6494 28.0025 98.9345C28.628 98.1302 29.2982 97.3706 30.0131 96.6557C30.46 96.2089 30.8174 95.7174 31.0855 95.1812C31.3536 94.645 31.7111 94.1535 32.1579 93.7067C32.5153 93.2599 32.7387 92.8578 32.8281 92.5003C33.0068 92.1429 33.2749 91.7407 33.6324 91.2939C34.2579 90.579 34.7494 89.73 35.1069 88.747C35.4643 87.764 35.8665 86.8704 36.3133 86.0661C36.7601 85.0831 37.1622 84.1895 37.5197 83.3852C37.9665 82.581 38.4133 81.6873 38.8601 80.7043C39.2176 79.7213 39.575 78.8277 39.9325 78.0234C40.2899 77.2192 40.6921 76.4149 41.1389 75.6106C41.3176 75.2532 41.4964 74.851 41.6751 74.4042C41.8538 73.9574 42.0772 73.5999 42.3453 73.3318C42.6134 73.0638 42.7474 72.6616 42.7474 72.1254C42.9262 71.5893 43.1496 71.0978 43.4177 70.6509C43.7751 70.2041 44.0432 69.7126 44.2219 69.1765C44.4007 68.1935 44.6688 67.2998 45.0262 66.4955C45.3837 65.6019 45.7858 64.753 46.2326 63.9487L49.5838 56.4422C49.7625 55.9953 49.9859 55.5485 50.254 55.1017C50.6114 54.5655 50.7902 53.9847 50.7902 53.3591C50.9689 52.9123 51.1476 52.4208 51.3263 51.8846C51.5051 51.3484 51.6838 50.8569 51.8625 50.4101C52.0412 49.9633 52.2647 49.5612 52.5327 49.2037C52.8902 48.7569 53.1583 48.3101 53.337 47.8633C53.7838 47.1484 54.1413 46.3441 54.4094 45.4504C54.6775 44.5568 55.0349 43.7525 55.4817 43.0376C55.7498 42.5014 56.0179 42.01 56.286 41.5631C56.6435 41.027 56.9562 40.4461 57.2243 39.8205C57.3137 39.6418 57.5371 39.2397 57.8946 38.6141C58.252 37.9886 58.5201 37.6758 58.6988 37.6758C58.8775 37.4077 59.0563 37.0056 59.235 36.4694C59.235 35.8439 59.4137 35.3077 59.7712 34.8609C60.1286 34.3247 60.4414 33.8332 60.7095 33.3864C61.067 32.9396 61.335 32.4481 61.5138 31.9119C61.7819 31.3757 62.0946 30.8842 62.4521 30.4374C63.167 29.4544 63.8372 28.4714 64.4628 27.4884C65.0883 26.5054 65.7585 25.5224 66.4734 24.5394C65.7585 24.5394 64.9543 24.6288 64.0606 24.8075C63.2564 24.9862 62.4968 24.9415 61.7819 24.6734C60.9776 24.4947 60.1286 24.316 59.235 24.1373C58.3414 23.8692 57.4477 23.6011 56.5541 23.333C56.1073 23.1543 55.7498 23.0649 55.4817 23.0649C55.2136 23.0649 54.9009 22.9755 54.5434 22.7968C54.186 22.6181 53.8285 22.484 53.4711 22.3947C53.1136 22.2159 52.7115 22.0372 52.2647 21.8585C51.2817 21.5904 50.2987 21.1883 49.3157 20.6521C48.422 20.0265 47.4837 19.6244 46.5007 19.4457C44.1773 18.6414 41.9432 17.6137 39.7984 16.3626C37.6537 15.0222 35.375 14.0392 32.9621 13.4136C31.1749 12.9668 29.3429 12.5647 27.4663 12.2072C25.679 11.7604 23.8471 11.4923 21.9704 11.403C20.0938 11.2242 18.2172 11.3136 16.3405 11.671C14.5533 11.9391 12.8554 12.6094 11.2468 13.6817C8.92336 15.2009 7.22546 17.2563 6.1531 19.8478C5.08074 22.35 4.63392 25.0309 4.81264 27.8905C4.99137 30.214 5.79564 32.18 7.22546 33.7885C8.74464 35.3077 10.5766 36.3354 12.7213 36.8716C14.1511 37.3184 15.8044 37.4077 17.681 37.1396C19.5576 36.8716 21.1215 36.246 22.3726 35.263C22.6407 35.0843 22.9534 34.8609 23.3109 34.5928C23.6683 34.2353 24.0705 34.0566 24.5173 34.0566C24.9641 34.0566 25.3216 34.1906 25.5897 34.4587C25.8577 34.7268 26.2152 34.8609 26.662 34.8609C26.662 35.2183 26.7514 35.4864 26.9301 35.6651C27.1088 35.8439 27.1535 36.1566 27.0642 36.6035C26.9748 37.0503 26.8854 37.4077 26.7961 37.6758C26.7067 37.9439 26.4833 38.1673 26.1258 38.3461C25.2322 38.8822 24.2939 39.4184 23.3109 39.9546C22.4173 40.4908 21.4789 40.8482 20.4959 41.027C18.4406 41.4738 16.3852 41.6972 14.3299 41.6972C12.2745 41.6078 10.3085 41.0716 8.43187 40.0886C8.16378 39.9993 7.71696 39.7759 7.09141 39.4184C6.55523 39.061 6.01905 38.6588 5.48287 38.212C4.85733 37.7652 4.36583 37.3184 4.00837 36.8716C3.56156 36.4247 3.33815 36.0226 3.33815 35.6651C2.98069 35.6651 2.66792 35.3971 2.39983 34.8609C2.04238 34.3247 1.77429 33.6991 1.59556 32.9842C1.32747 32.2693 1.10406 31.5991 0.925333 30.9736C0.746606 30.2587 0.657243 29.7672 0.657243 29.4991C0.478516 28.5161 0.433834 27.6224 0.523197 26.8182C0.612561 25.9245 0.701924 24.9862 0.791288 24.0032C0.791288 23.467 0.925333 22.9755 1.19342 22.5287C1.37215 21.9925 1.46151 21.501 1.46151 21.0542C1.46151 20.8755 1.46151 20.6521 1.46151 20.384C1.46151 20.0265 1.5062 19.7584 1.59556 19.5797C2.04238 19.1329 2.26579 18.7754 2.26579 18.5074C2.26579 17.7031 2.57856 16.8541 3.2041 15.9605C3.82965 14.9775 4.41051 14.2179 4.94669 13.6817L7.3595 11.403C7.80632 10.9561 8.20846 10.5987 8.56591 10.3306C9.01273 10.0625 9.45955 9.74973 9.90636 9.39227C10.1745 9.12419 10.6213 8.81142 11.2468 8.45396C11.9617 8.00715 12.4979 7.78374 12.8554 7.78374C13.4809 7.78374 14.0618 7.69437 14.5979 7.51564C15.1341 7.24755 15.6703 7.06883 16.2065 6.97947C16.7427 6.80074 17.2789 6.71137 17.815 6.71137C18.3512 6.62201 18.8427 6.53265 19.2895 6.44329C20.7193 6.08583 22.1938 6.17519 23.713 6.71137C24.1598 6.8901 24.6513 6.97947 25.1875 6.97947C25.7237 6.97947 26.2599 7.06883 26.7961 7.24756C28.5833 7.78373 30.3259 8.27523 32.0238 8.72205C33.8111 9.0795 35.5537 9.61569 37.2516 10.3306C37.8771 10.5093 38.458 10.7774 38.9942 11.1349C39.6197 11.403 40.2006 11.7157 40.7368 12.0732C41.3623 12.2519 41.9432 12.4753 42.4794 12.7434C43.1049 12.9221 43.6858 13.1455 44.2219 13.4136C44.5794 13.5924 45.0709 13.9498 45.6964 14.486C46.322 14.9328 46.8582 15.1562 47.305 15.1562C48.0199 15.5137 48.8688 15.7818 49.8518 15.9605C50.9242 16.1392 51.9072 16.452 52.8008 16.8988C52.8008 16.7201 52.8902 16.7648 53.0689 17.0329C53.337 17.3009 53.5157 17.435 53.6051 17.435C53.9626 17.7031 54.3647 17.8818 54.8115 17.9712C55.3477 17.9712 55.8392 18.0605 56.286 18.2393L57.7605 19.0435C58.2073 19.0435 58.7882 19.1329 59.5031 19.3116C60.218 19.4904 60.8435 19.6691 61.3797 19.8478C62.6308 20.2053 63.8372 20.2499 64.999 19.9819C66.25 19.7138 67.4118 19.3116 68.4841 18.7754L71.7012 17.0329H71.9693C72.148 17.0329 72.2821 16.9882 72.3714 16.8988C72.5502 16.8988 72.7736 16.8541 73.0417 16.7648C73.7566 16.0499 74.6055 15.9158 75.5885 16.3626C76.6609 16.7201 77.1971 17.3903 77.1971 18.3733C77.1971 19.1776 76.8843 19.8925 76.2588 20.518C75.6332 21.0542 75.0523 21.5904 74.5162 22.1266L71.9693 25.2096L69.5565 28.1586C68.8416 29.231 68.216 30.2587 67.6799 31.2417C67.5905 31.331 67.5011 31.4651 67.4118 31.6438C67.3224 31.8225 67.233 31.9119 67.1437 31.9119C67.1437 32.0906 67.0096 32.314 66.7415 32.5821C66.5628 32.7608 66.4288 32.9396 66.3394 33.1183C65.9819 33.5651 65.6692 34.0119 65.4011 34.4587C65.133 34.9056 64.8649 35.3524 64.5968 35.7992C64.5075 36.0673 64.284 36.4694 63.9266 37.0056C63.6585 37.4524 63.5245 37.7652 63.5245 37.9439C62.7202 39.4631 61.8712 40.9823 60.9776 42.5015C60.1733 43.9313 59.4584 45.4058 58.8329 46.9249C58.5648 47.5505 58.2967 48.2207 58.0286 48.9356C57.7605 49.5612 57.4031 50.142 56.9562 50.6782C56.5094 51.2144 56.1966 51.8846 56.0179 52.6889C55.9286 53.4038 55.7051 54.074 55.3477 54.6996C54.9902 55.4145 54.6775 56.1294 54.4094 56.8443C54.2306 57.4698 54.0072 58.1401 53.7391 58.855C53.5604 59.3911 53.2923 59.838 52.9349 60.1954C52.6668 60.5529 52.4434 60.955 52.2647 61.4018C51.9072 62.4742 51.5497 63.4572 51.1923 64.3508C50.8348 65.2445 50.4327 66.1828 49.9859 67.1658C49.271 68.8637 48.5114 70.6063 47.7071 72.3935C46.9922 74.1808 46.1879 75.834 45.2943 77.3532C45.1156 77.5319 44.8922 77.8894 44.6241 78.4256C44.356 78.9617 44.2219 79.3192 44.2219 79.4979C43.5964 80.4809 43.0602 81.6427 42.6134 82.9831C42.524 83.2512 42.4347 83.6533 42.3453 84.1895C42.2559 84.7257 42.0772 85.0831 41.8091 85.2619C41.3623 85.53 41.0049 85.9768 40.7368 86.6023C40.4687 87.2279 40.2453 87.7641 40.0665 88.2109C39.8878 88.747 39.6197 89.3279 39.2623 89.9535C38.9942 90.4896 38.8154 91.0258 38.7261 91.562C39.6197 91.2939 40.424 90.7577 41.1389 89.9535C41.9432 89.0598 42.6581 88.2556 43.2836 87.5406C44.1773 86.647 45.0709 85.7981 45.9645 84.9938C46.8582 84.1895 47.7071 83.2959 48.5114 82.3129C50.2987 80.4362 51.9966 78.3362 53.6051 76.0128L57.0903 71.4552C57.7158 70.5616 58.3861 69.7126 59.101 68.9084C59.9052 68.1041 60.5308 67.2551 60.9776 66.3615C61.7819 64.6636 62.7649 63.0551 63.9266 61.5359C65.0883 60.0167 66.1607 58.4975 67.1437 56.9783C67.6799 56.1741 68.216 55.3698 68.7522 54.5655C69.2884 53.7612 69.7799 52.957 70.2267 52.1527C70.5842 51.6165 70.9416 51.0803 71.2991 50.5442C71.6565 50.008 71.9693 49.4271 72.2374 48.8016L73.1757 47.059C74.0693 45.2717 75.0077 43.5738 75.9907 41.9653C77.063 40.2674 78.1354 38.6141 79.2078 37.0056L83.3632 31.1076C83.5419 30.7502 83.6759 30.3033 83.7653 29.7671C83.944 29.231 84.2121 28.8288 84.5696 28.5607C84.8376 28.2927 85.0164 28.0246 85.1057 27.7565C85.1951 27.5778 85.3291 27.3543 85.5079 27.0862C85.776 26.7288 85.9994 26.4607 86.1781 26.282C86.893 25.5671 87.5632 24.7628 88.1888 23.8692C88.8143 22.8862 89.3952 21.9478 89.9314 21.0542C90.3782 20.3393 90.7803 19.6244 91.1378 18.9095C91.4952 18.1946 91.8974 17.5244 92.3442 16.8988C92.7016 16.3626 93.2378 16.0052 93.9527 15.8264C94.757 15.6477 95.4272 15.7818 95.9634 16.2286C96.6783 16.9435 96.9017 17.6137 96.6336 18.2393C96.4549 18.8648 96.1421 19.535 95.6953 20.2499C95.5166 20.6074 95.2932 21.0095 95.0251 21.4564C94.8464 21.8138 94.6229 22.1713 94.3549 22.5287C93.908 23.1543 93.6846 23.6904 93.6846 24.1373C93.2378 24.4947 92.8804 24.8968 92.6123 25.3437C92.3442 25.7905 92.0761 26.2373 91.808 26.6841C91.5399 27.0416 91.3612 27.399 91.2718 27.7565C91.1825 28.1139 91.0484 28.5161 90.8697 28.9629C90.691 29.4097 90.4229 29.8565 90.0654 30.3033C89.7973 30.6608 89.6633 31.0629 89.6633 31.5097C89.3952 31.9566 89.1718 32.4927 88.993 33.1183C88.8143 33.7438 88.5909 34.3247 88.3228 34.8609C88.2335 35.0396 88.01 35.4417 87.6526 36.0673C87.2951 36.6928 87.1164 37.095 87.1164 37.2737C87.0271 37.4524 86.9377 37.6758 86.8483 37.9439C86.759 38.1226 86.7143 38.3014 86.7143 38.4801V38.7482C86.2675 39.195 85.9547 39.8652 85.776 40.7589C85.6866 41.5631 85.5526 42.2334 85.3738 42.7695C85.1951 43.3951 84.9717 44.0206 84.7036 44.6462C84.5249 45.2717 84.3015 45.8526 84.0334 46.3888C83.8547 46.5675 83.7653 46.7015 83.7653 46.7909C83.7653 47.1484 83.6759 47.4611 83.4972 47.7292C83.3185 47.9079 83.2291 48.0867 83.2291 48.2654C83.0504 48.8016 82.8717 49.2931 82.6929 49.7399C82.5142 50.1867 82.3355 50.5888 82.1567 50.9463C82.0674 51.2144 82.0227 51.3931 82.0227 51.4825C81.7546 52.108 81.5759 52.7336 81.4865 53.3591C81.3972 53.8953 81.1737 54.4762 80.8163 55.1017C80.6376 55.8166 80.3695 56.4868 80.012 57.1124C79.7439 57.7379 79.4758 58.4081 79.2078 59.1231L78.0013 62.8763C77.7332 64.038 77.4205 65.0657 77.063 65.9594C76.6162 66.9424 76.2587 68.1488 75.9907 69.5786C75.8119 70.2935 75.5885 70.919 75.3204 71.4552C75.0523 71.902 74.8289 72.3935 74.6502 72.9297C73.9353 75.2532 72.997 77.5766 71.8353 79.9001C70.7629 82.1341 70.0927 84.547 69.8246 87.1385C71.0757 86.1555 72.1927 85.0385 73.1757 83.7874C74.2481 82.5363 75.2758 81.2405 76.2588 79.9001C76.4375 79.5426 76.7056 79.2745 77.063 79.0958C77.4205 78.8277 77.6886 78.4702 77.8673 78.0234C78.046 77.8447 78.3588 77.4426 78.8056 76.817C79.2524 76.1915 79.4758 75.834 79.4758 75.7447C79.4758 75.2978 79.6546 74.8957 80.012 74.5383C80.4588 74.1808 80.7716 73.8233 80.9503 73.4659L82.0227 71.3212C82.2014 70.8744 82.4248 70.4722 82.6929 70.1148C82.961 69.6679 83.3185 69.3552 83.7653 69.1765C83.944 68.9977 84.1674 68.819 84.4355 68.6403C84.793 68.3722 84.9717 68.1041 84.9717 67.836C84.9717 67.5679 85.1057 67.2998 85.3738 67.0317C85.7313 66.6743 85.9994 66.4062 86.1781 66.2275L87.7866 63.8146C88.0547 63.3678 88.2781 62.8763 88.4569 62.3401C88.725 61.804 89.0824 61.3571 89.5292 60.9997C89.976 60.7316 90.3782 60.1954 90.7356 59.3912C91.1825 58.4975 91.4952 57.8273 91.674 57.3805C92.0314 56.3975 92.5676 55.4592 93.2825 54.5655C93.9974 53.5825 94.6229 52.6889 95.1591 51.8846C95.874 50.8123 96.5443 49.6952 97.1698 48.5335C97.8847 47.2824 98.6443 46.2547 99.4486 45.4504C99.6273 45.2717 99.806 44.9589 99.9848 44.5121C100.163 44.0653 100.342 43.7525 100.521 43.5738C100.521 43.3057 100.7 42.9483 101.057 42.5015C101.415 42.0546 101.683 41.6972 101.861 41.4291C102.129 40.9823 102.353 40.5355 102.532 40.0886C102.8 39.6418 103.068 39.195 103.336 38.7482C103.604 38.3014 103.917 37.9439 104.274 37.6758C104.632 37.4077 104.944 37.0503 105.213 36.6035C105.481 36.246 105.704 35.8886 105.883 35.5311C106.151 35.1736 106.374 34.7715 106.553 34.3247C107.179 33.2523 107.893 32.2693 108.698 31.3757C109.591 30.3927 110.351 29.3203 110.976 28.1586C111.691 27.1756 112.406 26.282 113.121 25.4777C113.925 24.5841 114.685 23.6904 115.4 22.7968C116.026 22.0819 116.651 21.4117 117.277 20.7861C117.902 20.0712 118.528 19.4457 119.153 18.9095C119.153 18.7308 119.377 18.418 119.823 17.9712C120.36 17.435 120.717 17.0775 120.896 16.8988C121.343 16.3626 121.789 15.8711 122.236 15.4243C122.772 14.8881 123.353 14.3966 123.979 13.9498L128.134 10.7327C129.475 9.74973 130.86 8.67737 132.29 7.51564C133.719 6.35392 135.194 5.50497 136.713 4.96878C137.517 4.7007 138.277 4.38793 138.992 4.03047C139.796 3.58365 140.6 3.27088 141.405 3.09215C141.852 2.91343 142.254 2.77938 142.611 2.69002C143.058 2.60065 143.505 2.46661 143.952 2.28788C144.13 2.10916 144.264 1.97511 144.354 1.88574C144.532 1.79638 144.756 1.7517 145.024 1.7517C145.471 1.7517 145.873 1.66234 146.23 1.48361C146.677 1.21552 147.169 1.08148 147.705 1.08148C148.152 1.08148 148.643 0.947429 149.179 0.679337C149.716 0.41125 150.252 0.41125 150.788 0.679337C151.413 0.947429 151.771 1.30488 151.86 1.7517C151.95 2.19852 151.905 2.64533 151.726 3.09215C151.547 3.53897 151.235 3.9411 150.788 4.29856C150.341 4.65601 149.85 4.87942 149.313 4.96878C148.598 5.05815 147.973 5.19219 147.437 5.37092C146.99 5.54965 146.454 5.77306 145.828 6.04115C144.935 6.48796 143.952 6.8901 142.879 7.24756C141.896 7.51565 140.913 7.8731 139.93 8.31992C139.037 8.76674 138.143 9.21355 137.249 9.66037C136.445 10.0178 135.641 10.5093 134.837 11.1349C134.211 11.5817 133.451 12.0732 132.558 12.6094C131.753 13.1455 130.994 13.6817 130.279 14.2179C129.028 15.2009 127.866 16.2286 126.794 17.3009C125.721 18.2839 124.649 19.3116 123.577 20.384Z" fill="white"/>
<path d="M133.459 79.0958C133.638 79.5426 133.817 80.0788 133.996 80.7043C134.264 81.3299 134.219 81.8214 133.862 82.1788L132.655 83.7874C132.387 84.2342 132.03 84.7257 131.583 85.2619C131.225 85.7087 130.823 86.1555 130.376 86.6023C130.198 86.7811 129.885 87.0938 129.438 87.5406C128.991 87.8981 128.678 88.0768 128.5 88.0768C128.5 88.5236 128.187 88.9705 127.561 89.4173C127.025 89.8641 126.623 90.2215 126.355 90.4896C125.551 91.2939 124.702 92.1429 123.808 93.0365C123.004 93.8408 122.155 94.6004 121.261 95.3153C120.636 95.7621 120.055 96.2536 119.519 96.7898C119.072 97.2366 118.67 97.7728 118.312 98.3983C118.134 98.8451 117.731 99.2473 117.106 99.6047C116.48 99.9622 115.944 100.32 115.497 100.677C115.051 100.945 114.648 101.258 114.291 101.615C113.933 101.973 113.531 102.241 113.085 102.42C112.638 102.688 112.146 103.045 111.61 103.492C111.163 103.849 110.716 104.118 110.27 104.296C109.644 104.475 109.063 104.698 108.527 104.967C108.08 105.145 107.499 105.279 106.784 105.369C105.891 105.547 104.997 105.637 104.104 105.637C103.299 105.637 102.495 105.369 101.691 104.832C100.261 103.939 99.3226 102.866 98.8757 101.615C98.4289 100.275 98.2949 98.8004 98.4736 97.1919C98.8311 94.511 99.68 91.8748 101.02 89.2832C101.378 88.5683 101.78 87.8534 102.227 87.1385C102.763 86.3342 103.21 85.5746 103.567 84.8597C103.835 84.2342 104.193 83.6533 104.64 83.1172C105.087 82.581 105.489 82.0448 105.846 81.5086C106.025 81.0618 106.204 80.6597 106.382 80.3022C106.65 79.8554 106.918 79.4532 107.187 79.0958C107.455 78.7383 107.633 78.3809 107.723 78.0234C107.901 77.5766 108.17 77.2638 108.527 77.0851C108.706 76.9064 108.884 76.6383 109.063 76.2808C109.331 75.9234 109.51 75.6553 109.599 75.4766C109.867 75.0298 110.18 74.5383 110.538 74.0021C110.895 73.3765 111.297 72.885 111.744 72.5276C112.012 72.2595 112.236 71.8127 112.414 71.1871C112.682 70.5616 112.95 70.2041 113.219 70.1148C113.397 70.0254 113.576 69.8467 113.755 69.5786C114.023 69.3105 114.291 69.0871 114.559 68.9084C115.006 68.7296 115.363 68.7296 115.631 68.9084C115.899 69.0871 116.168 69.2658 116.436 69.4445C116.972 69.8914 117.195 70.4275 117.106 71.0531C117.106 71.6786 116.927 72.3042 116.57 72.9297C116.212 73.5553 115.765 74.1808 115.229 74.8063C114.782 75.4319 114.425 75.9234 114.157 76.2808C113.085 77.8 112.102 79.3639 111.208 80.9724C110.314 82.581 109.331 84.1001 108.259 85.53C106.561 87.6747 105.131 90.1322 103.969 92.9024C103.791 93.2599 103.567 93.7514 103.299 94.3769C103.121 95.0025 102.942 95.6727 102.763 96.3876C102.674 97.1025 102.629 97.7728 102.629 98.3983C102.718 99.0239 102.986 99.4707 103.433 99.7388C103.791 99.9175 104.103 100.141 104.372 100.409C104.64 100.677 104.997 100.856 105.444 100.945C106.427 100.945 107.276 100.766 107.991 100.409C109.421 99.7834 110.761 98.9792 112.012 97.9962C113.353 96.9238 114.559 95.8514 115.631 94.7791C115.81 94.6004 115.989 94.4663 116.168 94.3769C116.436 94.2876 116.659 94.1535 116.838 93.9748C116.838 93.7961 116.838 93.7067 116.838 93.7067C116.838 93.7067 116.972 93.5727 117.24 93.3046L119.653 91.0258L121.261 89.5513L122.736 88.0768L125.685 84.8597L127.561 82.9831C127.651 82.8937 127.964 82.581 128.5 82.0448C129.125 81.5086 129.527 81.0618 129.706 80.7043C130.242 79.9894 130.734 79.4979 131.181 79.2298C131.717 78.8724 132.476 78.8277 133.459 79.0958ZM120.591 64.753C118.893 63.5019 118.58 61.8486 119.653 59.7933C119.831 59.4358 120.144 59.0337 120.591 58.5869C121.038 58.0507 121.485 57.6486 121.932 57.3805C122.468 57.1124 122.959 56.9783 123.406 56.9783C123.942 56.9783 124.434 57.2017 124.881 57.6486C125.595 58.3635 126.042 59.3018 126.221 60.4635C126.489 61.5359 126.266 62.4295 125.551 63.1444C124.836 63.8593 124.032 64.3061 123.138 64.4849C122.334 64.6636 121.485 64.753 120.591 64.753Z" fill="white"/>
<path d="M190.256 25.7458C190.256 27.6224 189.943 29.365 189.318 30.9736C188.692 32.5821 187.932 34.1906 187.039 35.7992C186.771 36.4247 186.503 37.0056 186.234 37.5418C186.056 38.078 185.788 38.6141 185.43 39.1503C185.162 39.5971 184.76 40.1333 184.224 40.7589C183.688 41.3844 183.375 41.9206 183.285 42.3674C183.196 42.993 182.928 43.5291 182.481 43.9759C182.124 44.4228 181.766 44.8696 181.409 45.3164C180.515 46.5675 179.666 47.8186 178.862 49.0697C178.058 50.3208 177.253 51.5718 176.449 52.8229C175.734 53.7166 175.019 54.5655 174.304 55.3698C173.679 56.1741 173.009 56.9783 172.294 57.7826L170.417 59.3912C170.238 59.7486 170.06 60.1061 169.881 60.4635C169.792 60.821 169.568 61.0891 169.211 61.2678C169.032 61.3571 168.764 61.6699 168.406 62.2061C168.138 62.6529 167.915 62.9657 167.736 63.1444L165.323 65.5572L162.643 68.3722L158.621 72.5276C157.013 74.1361 155.359 75.7 153.661 77.2192C151.964 78.649 150.266 80.0788 148.568 81.5086L146.155 83.6533C145.797 83.8321 145.44 84.0108 145.083 84.1895C144.725 84.2789 144.412 84.4576 144.144 84.7257C143.876 84.9938 143.697 85.0832 143.608 84.9938C143.519 84.9044 143.385 85.0385 143.206 85.3959C142.849 86.1108 142.625 86.647 142.536 87.0045C141.91 88.613 141.285 90.3556 140.659 92.2322C140.034 94.0195 139.81 95.8068 139.989 97.594C140.078 98.1302 140.212 98.7111 140.391 99.3366C140.659 99.9622 141.017 100.498 141.463 100.945C142.089 101.035 142.67 101.169 143.206 101.347C143.742 101.437 144.323 101.392 144.949 101.213C145.306 101.124 145.976 100.945 146.959 100.677C147.942 100.409 148.434 100.096 148.434 99.7388C149.238 99.6494 149.953 99.3366 150.578 98.8004C151.293 98.2643 151.964 97.7728 152.589 97.3259C152.857 97.0578 153.17 96.7451 153.527 96.3876C153.885 96.0302 154.242 95.8514 154.6 95.8514C154.689 95.4046 155.091 94.9131 155.806 94.3769C156.61 93.8408 157.236 93.394 157.683 93.0365L160.632 90.2215C161.525 89.4173 162.419 88.5683 163.313 87.6747C164.206 86.6917 165.145 85.7087 166.128 84.7257C166.843 84.0108 167.557 83.2959 168.272 82.581C169.077 81.7767 169.792 80.9277 170.417 80.0341C171.043 79.2298 171.802 78.8277 172.696 78.8277C173.321 78.8277 173.724 79.0064 173.902 79.3639C174.081 79.632 174.215 80.0788 174.304 80.7043C174.394 81.8661 173.947 82.9384 172.964 83.9214C171.981 84.9044 171.132 85.7534 170.417 86.4683C169.077 87.7194 167.781 89.0598 166.53 90.4896C165.368 91.8301 164.028 93.1259 162.508 94.3769C161.079 95.5387 159.694 96.7004 158.353 97.8621C157.102 99.0238 155.717 100.186 154.198 101.347C153.215 102.152 152.053 102.956 150.712 103.76C149.372 104.564 147.987 105.19 146.557 105.637C145.127 106.084 143.697 106.262 142.268 106.173C140.838 106.173 139.542 105.681 138.38 104.698C136.861 103.447 135.968 101.705 135.699 99.4707C135.431 97.2366 135.521 95.2259 135.968 93.4386C136.682 91.0258 137.442 88.613 138.246 86.2002C138.782 84.5023 139.453 82.7597 140.257 80.9724C141.419 78.1128 142.625 75.2532 143.876 72.3935C145.217 69.5339 146.646 66.7636 148.166 64.0827C149.149 62.2061 150.176 60.4188 151.249 58.7209C152.321 56.9337 153.438 55.1464 154.6 53.3591C155.404 52.108 156.208 50.9016 157.013 49.7399C157.906 48.5782 158.755 47.3718 159.559 46.1207C159.738 45.9419 159.872 45.7185 159.962 45.4504C160.14 45.1824 160.319 44.9589 160.498 44.7802L161.168 43.8419C161.615 42.8589 162.196 41.9653 162.911 41.161C163.715 40.3567 164.385 39.4631 164.921 38.4801C165.1 38.1226 165.323 37.8545 165.592 37.6758C165.86 37.4077 166.128 37.095 166.396 36.7375C166.396 36.6481 166.53 36.4694 166.798 36.2013C166.887 35.9332 167.021 35.7545 167.2 35.6651C167.468 35.5758 167.692 35.4417 167.87 35.263C168.138 34.9949 168.317 34.6821 168.406 34.3247C168.585 33.8779 168.853 33.5651 169.211 33.3864C169.568 33.2076 169.836 32.9842 170.015 32.7161C170.283 32.3587 170.506 32.0459 170.685 31.7778C170.864 31.5097 171.087 31.2863 171.355 31.1076C171.624 30.9289 171.802 30.7502 171.892 30.5714C172.07 30.1246 172.383 29.7225 172.83 29.365C173.366 28.9182 173.813 28.5607 174.17 28.2927C174.975 27.5777 175.779 26.8628 176.583 26.1479C177.387 25.433 178.281 24.7628 179.264 24.1373C179.711 23.8692 180.068 23.6458 180.336 23.467C180.694 23.1989 181.096 23.0202 181.543 22.9308C181.9 22.9308 182.437 22.8415 183.151 22.6628C183.598 22.5734 184 22.5287 184.358 22.5287C184.805 22.5287 185.251 22.5287 185.698 22.5287C186.771 22.5287 187.664 22.8415 188.379 23.467C189.183 24.0032 189.809 24.7628 190.256 25.7458ZM185.028 30.9736C185.117 30.7948 185.207 30.5267 185.296 30.1693C185.475 29.7225 185.609 29.3203 185.698 28.9629C185.877 28.5161 185.966 28.1139 185.966 27.7565C186.056 27.399 185.966 27.1756 185.698 27.0862C185.251 26.8182 184.715 26.7288 184.09 26.8182C183.554 26.9075 183.062 26.9969 182.615 27.0862C181.99 27.1756 181.454 27.4437 181.007 27.8905C180.56 28.248 180.113 28.6501 179.666 29.0969C179.488 29.2757 179.13 29.4991 178.594 29.7671C178.147 30.0352 177.879 30.3033 177.79 30.5714C177.611 30.7502 177.477 30.9289 177.387 31.1076C177.298 31.197 177.164 31.331 176.985 31.5097C176.27 32.1353 175.6 32.8055 174.975 33.5204C174.439 34.146 173.858 34.8162 173.232 35.5311C172.785 36.0673 172.294 36.5588 171.758 37.0056C171.221 37.363 170.73 37.8099 170.283 38.3461C170.015 39.061 169.524 39.8205 168.809 40.6248C168.094 41.3397 167.468 41.9653 166.932 42.5015C166.217 43.7525 165.413 44.9589 164.519 46.1207C163.626 47.2824 162.777 48.4888 161.972 49.7399L158.621 54.8336C158.264 55.2804 157.951 55.7272 157.683 56.1741C157.415 56.6209 157.147 57.1124 156.879 57.6486C156.61 58.2741 156.298 58.855 155.94 59.3912C155.583 59.838 155.225 60.3741 154.868 60.9997C154.868 61.1784 154.644 61.5806 154.198 62.2061C153.84 62.7423 153.617 63.0104 153.527 63.0104C153.259 63.2785 152.991 63.7253 152.723 64.3508C152.544 64.9764 152.321 65.4679 152.053 65.8253C151.785 66.2721 151.561 66.7636 151.383 67.2998C151.204 67.836 150.981 68.3275 150.712 68.7743C150.534 69.0424 150.4 69.2211 150.31 69.3105C150.31 69.3999 150.221 69.6679 150.042 70.1148C149.864 70.7403 149.64 71.1424 149.372 71.3212C148.925 71.768 148.612 72.3042 148.434 72.9297C148.344 73.5553 148.121 74.0914 147.763 74.5383C147.406 74.9851 147.004 75.5659 146.557 76.2808C146.2 76.9958 146.021 77.666 146.021 78.2915C146.915 77.9341 147.674 77.4426 148.3 76.817C149.015 76.1915 149.685 75.5213 150.31 74.8063C150.757 74.2702 151.293 73.7787 151.919 73.3318C152.544 72.885 153.081 72.3935 153.527 71.8574C154.242 70.9637 155.002 70.2041 155.806 69.5786C156.61 68.953 157.415 68.2381 158.219 67.4339C159.738 65.9147 161.257 64.3061 162.777 62.6082C164.296 60.821 165.77 59.0784 167.2 57.3805C168.809 55.4145 170.417 53.4485 172.026 51.4825C173.724 49.4271 175.198 47.3271 176.449 45.1824C176.896 44.2887 177.522 43.4398 178.326 42.6355C179.13 41.8312 179.711 40.9376 180.068 39.9546C180.426 39.1503 180.828 38.4354 181.275 37.8099C181.811 37.095 182.302 36.3354 182.749 35.5311C183.107 34.8162 183.509 34.1013 183.956 33.3864C184.403 32.5821 184.76 31.7778 185.028 30.9736Z" fill="white"/>
<path d="M235.258 36.4694C236.152 38.078 236.063 39.4631 234.99 40.6248C234.633 41.0716 234.32 41.5631 234.052 42.0993C233.873 42.6355 233.605 43.1717 233.248 43.7079C232.801 44.5121 232.309 45.3164 231.773 46.1207C231.326 46.9249 230.835 47.6845 230.299 48.3994C229.852 48.9356 229.494 49.4718 229.226 50.008C229.048 50.5442 228.78 51.0803 228.422 51.6165C228.065 52.1527 227.707 52.6889 227.35 53.2251C227.082 53.7613 226.814 54.2974 226.545 54.8336C225.562 56.0847 224.713 57.3805 223.999 58.7209C223.373 60.0614 222.613 61.3571 221.72 62.6082C221.005 63.5912 220.335 64.6189 219.709 65.6913C219.173 66.7636 218.547 67.836 217.833 68.9084C217.028 70.0701 216.269 71.3212 215.554 72.6616C214.839 74.0021 214.124 75.2978 213.409 76.5489C212.783 77.8 212.069 79.0511 211.264 80.3022C210.549 81.5533 209.834 82.8044 209.12 84.0555C208.673 84.9491 208.226 85.8427 207.779 86.7364C207.332 87.5406 206.796 88.3449 206.171 89.1492C205.902 89.596 205.59 90.0875 205.232 90.6237C204.875 91.1599 204.607 91.696 204.428 92.2322C204.071 93.0365 203.668 93.8408 203.222 94.645C202.864 95.3599 202.551 96.1195 202.283 96.9238C201.926 97.7281 201.613 98.443 201.345 99.0685C201.166 99.6941 201.479 100.32 202.283 100.945C203.266 101.66 204.16 101.883 204.964 101.615C205.768 101.258 206.617 100.856 207.511 100.409C208.226 100.141 208.851 99.8728 209.388 99.6047C210.013 99.3366 210.594 98.9792 211.13 98.5323C212.471 97.5493 213.722 96.5664 214.884 95.5834C216.135 94.6004 217.341 93.6174 218.503 92.6344C219.486 91.6514 220.469 90.713 221.452 89.8194C222.524 88.9258 223.507 87.9875 224.401 87.0045C225.116 86.2002 225.831 85.3512 226.545 84.4576C227.26 83.564 227.975 82.7597 228.69 82.0448C229.137 81.598 229.539 81.0171 229.897 80.3022C230.343 79.4979 230.924 79.0064 231.639 78.8277C232.533 78.649 233.248 79.0064 233.784 79.9001C234.409 80.7043 234.409 81.4639 233.784 82.1788C232.801 83.2512 231.863 84.3682 230.969 85.53C230.165 86.6023 229.271 87.6747 228.288 88.747L223.999 93.1705C223.373 93.7961 222.747 94.4216 222.122 95.0472C221.586 95.6727 220.96 96.2536 220.245 96.7898C219.799 97.2366 219.307 97.6834 218.771 98.1302C218.235 98.4877 217.743 98.8898 217.296 99.3366C216.939 99.6941 216.492 100.141 215.956 100.677C215.509 101.213 215.062 101.571 214.615 101.749C214.169 101.928 213.677 102.152 213.141 102.42C212.694 102.688 212.247 102.956 211.8 103.224C210.996 103.671 210.103 104.162 209.12 104.698C208.137 105.235 207.109 105.637 206.037 105.905C205.054 106.173 204.026 106.262 202.953 106.173C201.881 106.084 200.898 105.681 200.004 104.967C199.558 104.52 199.111 104.118 198.664 103.76C198.217 103.403 197.815 102.956 197.458 102.42C196.832 101.258 196.653 100.096 196.921 98.9345C197.19 97.7728 197.547 96.611 197.994 95.4493C197.547 95.36 196.966 95.5834 196.251 96.1195C195.626 96.6557 195.179 97.0578 194.911 97.3259C194.643 97.594 194.33 97.8174 193.972 97.9962C193.704 98.1749 193.436 98.3536 193.168 98.5323C191.917 99.5153 190.577 100.588 189.147 101.749C187.717 102.822 186.198 103.76 184.589 104.564C182.981 105.279 181.372 105.681 179.764 105.771C178.155 105.95 176.547 105.458 174.938 104.296C174.491 103.939 174.089 103.537 173.732 103.09C173.464 102.554 173.24 102.062 173.061 101.615C172.793 101.079 172.704 100.588 172.793 100.141C172.972 99.6941 172.972 99.2473 172.793 98.8004C172.525 98.0855 172.436 97.4153 172.525 96.7898C172.615 96.1642 172.749 95.494 172.927 94.7791C173.374 92.9918 173.955 91.2939 174.67 89.6854C175.474 88.0768 176.368 86.513 177.351 84.9938C177.351 84.8151 177.53 84.547 177.887 84.1895C178.244 83.8321 178.468 83.564 178.557 83.3852C178.736 83.2065 178.915 82.9831 179.093 82.715C179.272 82.4469 179.451 82.1788 179.63 81.9107C180.076 81.1958 180.613 80.5703 181.238 80.0341C181.864 79.4086 182.534 78.783 183.249 78.1575C183.964 77.6213 184.545 77.1298 184.991 76.683C185.528 76.1468 186.153 75.6553 186.868 75.2085C187.404 74.7617 187.896 74.4042 188.343 74.1361C188.879 73.7787 189.415 73.4659 189.951 73.1978L191.828 72.2595C192.453 71.902 192.989 71.5446 193.436 71.1871C193.972 70.7403 194.598 70.3829 195.313 70.1148C196.028 69.936 196.743 69.7573 197.458 69.5786C198.173 69.3105 198.887 69.0871 199.602 68.9084C200.764 68.7296 201.97 68.6849 203.222 68.7743C204.562 68.7743 205.813 68.953 206.975 69.3105C207.6 69.4892 208.181 69.802 208.717 70.2488C209.343 70.6956 209.924 71.0978 210.46 71.4552C210.817 70.919 211.13 70.3829 211.398 69.8467C211.756 69.2211 212.158 68.6403 212.605 68.1041L213.945 66.4955C214.303 66.1381 214.526 65.7806 214.615 65.4232C214.705 64.9764 214.884 64.5742 215.152 64.2168C215.33 63.77 215.598 63.3678 215.956 63.0104C216.313 62.5635 216.626 62.1614 216.894 61.804C217.252 61.4465 217.475 61.0444 217.564 60.5976C217.743 60.2401 217.922 59.972 218.101 59.7933C218.279 59.5252 218.458 59.2571 218.637 58.989C219.173 58.1847 219.664 57.3805 220.111 56.5762C220.558 55.7719 221.05 54.9677 221.586 54.1634C221.764 53.8953 221.943 53.5825 222.122 53.2251C222.39 52.8676 222.658 52.5548 222.926 52.2868C223.194 52.0187 223.418 51.6612 223.596 51.2144C223.775 50.7676 223.954 50.3654 224.133 50.008C224.579 49.2931 225.026 48.5782 225.473 47.8633C226.009 47.059 226.456 46.2994 226.814 45.5845C227.082 44.8696 227.394 44.1994 227.752 43.5738C228.199 42.9483 228.645 42.3227 229.092 41.6972C229.36 41.2504 229.628 40.8035 229.897 40.3567C230.165 39.9099 230.477 39.5078 230.835 39.1503C231.192 38.7035 231.46 38.2567 231.639 37.8099C231.818 37.2737 232.175 36.8716 232.712 36.6035C232.98 36.246 233.382 36.1566 233.918 36.3354C234.454 36.4247 234.901 36.4694 235.258 36.4694ZM206.439 79.9001C206.617 79.2745 206.796 78.6937 206.975 78.1575C207.154 77.6213 207.243 77.0404 207.243 76.4149C207.243 75.4319 206.885 74.717 206.171 74.2702C205.545 73.734 204.741 73.3765 203.758 73.1978C202.775 73.0191 201.747 73.0191 200.675 73.1978C199.692 73.2872 198.887 73.4212 198.262 73.5999C197.011 74.0468 195.849 74.5829 194.777 75.2085C193.704 75.834 192.587 76.5042 191.426 77.2192C190.353 77.8447 189.37 78.5596 188.477 79.3639C187.583 80.0788 186.645 80.8831 185.662 81.7767C184.679 82.6703 183.83 83.6533 183.115 84.7257C182.4 85.7087 181.64 86.7364 180.836 87.8087C180.121 88.613 179.496 89.462 178.959 90.3556C178.513 91.2492 178.155 92.1875 177.887 93.1705C177.798 93.528 177.619 94.0642 177.351 94.7791C177.172 95.494 177.038 96.2536 176.949 97.0579C176.859 97.8621 176.859 98.577 176.949 99.2026C177.038 99.8281 177.306 100.275 177.753 100.543C178.736 101.079 179.719 101.213 180.702 100.945C181.685 100.677 182.668 100.32 183.651 99.8728C184.634 99.426 185.438 98.9345 186.064 98.3983C186.689 97.8621 187.404 97.2813 188.209 96.6557C188.655 96.3876 189.102 96.1642 189.549 95.9855C189.996 95.7174 190.443 95.4046 190.889 95.0472C190.979 94.8685 191.202 94.6897 191.56 94.511C192.006 94.2429 192.23 94.0195 192.23 93.8408C193.124 93.2152 193.972 92.5897 194.777 91.9641C195.581 91.3386 196.385 90.6684 197.19 89.9535C198.798 88.5236 200.362 86.9598 201.881 85.2619C203.4 83.4746 204.919 81.6873 206.439 79.9001Z" fill="white"/>
<path d="M381.556 21.7244C381.556 24.1373 381.199 26.5947 380.484 29.0969C379.858 31.5991 379.054 33.9226 378.071 36.0673C377.535 37.3184 376.865 38.4354 376.06 39.4184C375.345 40.4014 374.63 41.3844 373.916 42.3674C372.486 44.244 370.788 45.9419 368.822 47.4611C366.856 48.8909 364.845 50.142 362.79 51.2144C361.717 51.7506 360.6 52.1974 359.439 52.5548C358.366 52.8229 357.339 53.1804 356.356 53.6272C356.088 53.6272 355.819 53.7166 355.551 53.8953C355.373 53.9847 355.149 54.074 354.881 54.1634C354.345 54.3421 353.853 54.4315 353.407 54.4315C352.513 54.6102 351.619 54.7889 350.726 54.9677C349.921 55.1464 349.073 55.1464 348.179 54.9677C347.464 54.8783 346.838 54.8783 346.302 54.9677C345.766 55.057 345.141 55.0123 344.426 54.8336C343.979 54.6549 343.264 54.4762 342.281 54.2974C341.298 54.0293 340.717 54.1187 340.538 54.5655C340.27 54.5655 339.868 54.7889 339.332 55.2357C338.796 55.5932 338.438 55.8613 338.26 56.04L334.64 58.5869C334.462 58.7656 334.015 59.0784 333.3 59.5252C332.674 59.972 332.272 60.1954 332.093 60.1954C331.825 60.3741 331.602 60.5529 331.423 60.7316L330.887 61.2678C330.172 61.5359 329.591 61.8486 329.144 62.2061C327.893 62.921 326.598 63.5466 325.257 64.0827C324.006 64.5296 322.71 65.0211 321.37 65.5572L315.472 67.5679C314.221 68.0147 312.925 68.2381 311.585 68.2381C310.333 68.2381 309.038 68.2828 307.697 68.3722C307.072 68.4615 306.446 68.5509 305.821 68.6403C305.284 68.7296 304.659 68.7743 303.944 68.7743C303.497 68.7743 303.095 68.8637 302.738 69.0424C302.38 69.1318 301.978 69.1765 301.531 69.1765C300.906 69.1765 300.28 69.1318 299.655 69.0424C299.118 68.8637 298.537 68.685 297.912 68.5062C297.018 68.3275 296.259 68.2381 295.633 68.2381C295.276 68.5956 294.963 69.1318 294.695 69.8467C294.605 70.0254 294.516 70.2488 294.427 70.5169C294.427 70.785 294.337 71.0531 294.159 71.3212C293.801 72.1254 293.444 72.9297 293.086 73.734C292.729 74.4489 292.416 75.2085 292.148 76.0128C291.969 76.4596 291.88 76.9511 291.88 77.4873C291.88 77.9341 291.791 78.3809 291.612 78.8277C291.433 79.2745 291.299 79.766 291.21 80.3022C291.21 80.8384 291.165 81.3746 291.076 81.9107C290.986 83.0725 290.897 84.1895 290.808 85.2619C290.808 86.3342 290.897 87.496 291.076 88.747C291.344 90.1769 291.746 91.4726 292.282 92.6344C292.818 93.7961 293.399 95.0025 294.025 96.2536C294.203 96.7004 294.427 97.1025 294.695 97.46C295.052 97.7281 295.365 97.9962 295.633 98.2643L296.303 99.2026C298.001 100.632 299.878 101.749 301.933 102.554C302.738 102.911 303.676 103.269 304.748 103.626C305.821 103.894 306.804 103.894 307.697 103.626C307.876 103.447 308.055 103.403 308.233 103.492C308.501 103.581 308.725 103.626 308.904 103.626C309.172 103.626 309.44 103.581 309.708 103.492C309.976 103.403 310.244 103.358 310.512 103.358C311.942 103.358 313.238 103.179 314.4 102.822C315.114 102.822 315.874 102.732 316.678 102.554C317.572 102.375 318.331 102.152 318.957 101.883C319.851 101.705 320.655 101.437 321.37 101.079C322.174 100.722 322.978 100.32 323.783 99.8728C324.14 99.8728 324.364 99.8281 324.453 99.7388C324.632 99.56 324.855 99.426 325.123 99.3366C325.57 99.1579 325.883 98.9792 326.061 98.8004C326.33 98.6217 326.642 98.443 327 98.2643C327.804 97.8174 328.608 97.4153 329.413 97.0579C330.306 96.611 331.11 96.1195 331.825 95.5834C332.272 95.2259 332.674 94.8684 333.032 94.511C333.389 94.1535 333.791 93.8408 334.238 93.5727C334.685 93.2152 335.087 92.9025 335.445 92.6344C335.891 92.2769 336.294 91.8748 336.651 91.428C337.008 90.9811 337.321 90.6237 337.589 90.3556C337.947 90.0875 338.349 89.7747 338.796 89.4173C339.243 89.0598 339.6 88.7024 339.868 88.3449C340.226 87.9875 340.583 87.5853 340.94 87.1385L342.281 85.664C342.549 85.3959 342.772 84.9938 342.951 84.4576C343.219 83.9214 343.443 83.4746 343.621 83.1172C343.979 82.581 344.381 81.9554 344.828 81.2405C345.275 80.4362 345.498 79.7213 345.498 79.0958C345.498 78.649 345.587 78.2022 345.766 77.7553C346.034 77.3085 346.168 76.8617 346.168 76.4149C346.526 74.717 346.481 73.1084 346.034 71.5893C345.855 71.0531 345.587 70.4275 345.23 69.7126C344.962 68.9977 344.56 68.5062 344.023 68.2381C343.577 67.97 342.996 67.7466 342.281 67.5679C341.655 67.2998 341.074 67.1658 340.538 67.1658C339.734 67.1658 338.93 67.2105 338.126 67.2998C337.411 67.2998 336.696 67.4785 335.981 67.836C335.087 68.1935 334.193 68.685 333.3 69.3105C332.138 70.0254 330.932 70.7403 329.681 71.4552C328.519 72.0808 327.447 72.885 326.464 73.868C325.749 74.6723 324.944 75.4319 324.051 76.1468C323.246 76.8617 322.487 77.7107 321.772 78.6937C321.593 78.8724 321.415 79.0064 321.236 79.0958C321.146 79.1852 321.012 79.3639 320.834 79.632C320.744 79.8107 320.655 79.9894 320.566 80.1682C320.566 80.2575 320.476 80.3916 320.297 80.5703C320.029 80.8384 319.761 81.1512 319.493 81.5086C319.225 81.8661 319.002 82.2235 318.823 82.581C318.287 83.564 317.795 84.547 317.348 85.53C316.902 86.513 316.589 87.5853 316.41 88.747C316.231 89.8194 316.097 90.8918 316.008 91.9641C316.008 92.9471 316.008 94.0195 316.008 95.1812C316.008 95.628 316.053 96.2089 316.142 96.9238C316.321 97.5494 316.276 97.9962 316.008 98.2643C315.472 98.8004 314.936 99.2919 314.4 99.7388C313.863 100.186 313.193 100.052 312.389 99.3366C312.031 99.1579 311.763 98.8898 311.585 98.5323C311.674 97.9068 311.674 97.3259 311.585 96.7898C311.495 96.2536 311.406 95.6727 311.316 95.0472C311.138 93.7067 311.227 92.411 311.585 91.1599C312.031 89.9088 312.255 88.613 312.255 87.2726C312.791 85.4853 313.416 83.7874 314.131 82.1788C314.936 80.5703 315.874 79.0511 316.946 77.6213C319.538 74.0468 322.487 71.0084 325.793 68.5062C326.955 67.6126 328.117 66.853 329.279 66.2275C329.547 66.0487 329.904 65.7806 330.351 65.4232C330.798 65.0657 331.2 64.887 331.557 64.887C331.825 64.6189 332.227 64.3061 332.764 63.9487C333.3 63.5912 333.836 63.4125 334.372 63.4125C334.64 63.1444 335.042 62.921 335.579 62.7423C336.115 62.5636 336.606 62.4742 337.053 62.4742C337.768 62.4742 338.349 62.5189 338.796 62.6082C339.332 62.6976 339.823 62.6976 340.27 62.6082C340.806 62.4295 341.343 62.3401 341.879 62.3401C342.147 62.3401 342.594 62.4295 343.219 62.6082C343.934 62.787 344.381 62.9657 344.56 63.1444C344.738 63.4125 344.962 63.5019 345.23 63.4125C345.498 63.3231 345.721 63.3678 345.9 63.5466C346.258 63.7253 346.57 63.904 346.838 64.0827C347.107 64.2615 347.419 64.4402 347.777 64.6189C348.224 65.0657 348.626 65.6913 348.983 66.4955C349.341 67.2105 349.653 67.9254 349.921 68.6403C350.1 68.819 350.279 69.0424 350.458 69.3105C350.726 69.5786 350.86 69.802 350.86 69.9807C350.86 70.2488 350.815 70.4722 350.726 70.6509C350.726 70.7403 350.77 70.919 350.86 71.1871C351.039 71.902 351.173 72.4829 351.262 72.9297C351.351 73.2872 351.307 73.8234 351.128 74.5383C351.039 74.9851 350.994 75.4766 350.994 76.0128C350.994 76.4596 350.904 76.9064 350.726 77.3532C350.547 78.0681 350.368 78.7383 350.19 79.3639C350.1 79.9001 349.921 80.4809 349.653 81.1065C349.385 81.6427 349.162 82.2682 348.983 82.9831C348.894 83.6086 348.626 84.1448 348.179 84.5917C347.821 84.9491 347.553 85.3512 347.375 85.7981C347.196 86.2449 346.972 86.6917 346.704 87.1385C346.258 87.6747 345.855 88.2109 345.498 88.747C345.23 89.1939 344.828 89.6854 344.292 90.2215L340.672 94.1089C340.315 94.4663 339.957 94.7344 339.6 94.9131C339.332 95.0025 339.019 95.2259 338.662 95.5834C335.623 98.6217 332.049 101.035 327.938 102.822L324.453 104.564C324.095 104.743 323.738 104.877 323.381 104.967C323.023 105.056 322.755 105.19 322.576 105.369C322.308 105.369 321.906 105.458 321.37 105.637C320.923 105.815 320.566 105.994 320.297 106.173C319.94 106.262 319.404 106.486 318.689 106.843C318.421 106.933 318.108 106.933 317.751 106.843C317.393 106.843 317.08 106.888 316.812 106.977L313.193 107.916C311.942 108.273 310.736 108.407 309.574 108.318C308.502 108.228 307.384 108.184 306.223 108.184C305.687 108.184 305.195 108.184 304.748 108.184C304.301 108.184 303.81 108.094 303.274 107.916C302.827 107.737 302.425 107.603 302.067 107.513C301.799 107.424 301.442 107.335 300.995 107.245C300.548 107.067 300.146 106.888 299.789 106.709C299.52 106.62 299.163 106.441 298.716 106.173C298.269 105.994 297.823 105.771 297.376 105.503C297.018 105.235 296.661 105.011 296.303 104.832C295.588 104.654 294.963 104.252 294.427 103.626C293.891 102.911 293.31 102.33 292.684 101.883C292.059 101.437 291.522 100.9 291.076 100.275C290.718 99.6494 290.316 98.9345 289.869 98.1302C289.154 96.9685 288.484 95.7174 287.859 94.3769C287.233 93.0365 286.92 91.696 286.92 90.3556C286.831 90.1769 286.697 89.6854 286.518 88.8811C286.429 88.0768 286.339 87.2279 286.25 86.3342C286.161 85.4406 286.116 84.6363 286.116 83.9214C286.205 83.2065 286.384 82.8491 286.652 82.8491C286.831 82.1341 286.876 81.4639 286.786 80.8384C286.786 80.1235 286.876 79.4086 287.054 78.6937C287.054 78.2468 287.099 77.7553 287.188 77.2192C287.367 76.683 287.546 76.1915 287.725 75.7447L288.529 73.3318C289.154 72.7063 289.512 71.8127 289.601 70.6509C289.69 69.4892 290.048 68.5956 290.673 67.97C289.959 67.6126 289.154 67.2551 288.261 66.8977C287.367 66.5402 286.563 66.1381 285.848 65.6913C285.49 65.5125 285.178 65.2891 284.91 65.021C284.641 64.6636 284.284 64.3955 283.837 64.2168C283.658 64.1274 283.39 63.9934 283.033 63.8146C282.675 63.6359 282.407 63.4572 282.229 63.2785C282.05 63.0104 281.692 62.6976 281.156 62.3401C280.709 61.8933 280.486 61.4912 280.486 61.1337C280.039 61.1337 279.548 60.6422 279.012 59.6592C278.565 58.5869 278.207 57.9167 277.939 57.6486C277.492 56.5762 277.001 55.5038 276.465 54.4315C276.018 53.3591 275.705 52.1974 275.526 50.9463C275.437 50.142 275.303 49.4271 275.124 48.8016C275.035 48.0867 275.035 47.3271 275.124 46.5228C275.214 45.5398 275.303 44.5568 275.392 43.5738C275.482 42.5015 275.616 41.4738 275.794 40.4908C276.063 40.2227 276.152 39.8652 276.063 39.4184C276.063 38.8822 276.152 38.4801 276.331 38.212C276.509 37.9439 276.599 37.6758 276.599 37.4077C276.688 37.1396 276.822 36.9162 277.001 36.7375C277.269 36.112 277.626 35.4864 278.073 34.8609C278.252 34.4141 278.386 34.0119 278.475 33.6545C278.654 33.297 278.833 32.9396 279.012 32.5821L279.95 31.5097C280.039 31.331 280.039 31.1523 279.95 30.9736C279.95 30.7948 280.039 30.6161 280.218 30.4374L281.29 29.0969L281.961 28.5607C281.961 27.8458 282.273 27.1756 282.899 26.5501C283.614 25.8352 284.195 25.2543 284.641 24.8075C284.82 24.6288 285.133 24.2713 285.58 23.7351C286.027 23.1989 286.339 22.9308 286.518 22.9308C286.786 22.9308 287.188 22.6181 287.725 21.9925C288.35 21.2776 288.797 20.8308 289.065 20.6521C289.333 20.4734 289.691 20.1159 290.137 19.5797C290.674 19.0435 291.031 18.7754 291.21 18.7754C291.835 18.3286 292.505 17.8371 293.22 17.3009C293.935 16.7648 294.65 16.3179 295.365 15.9605C296.169 15.603 296.974 15.1562 297.778 14.62C298.672 14.0839 299.476 13.8158 300.191 13.8158L307.027 11.671C307.474 11.671 307.921 11.6264 308.367 11.537C308.904 11.3583 309.484 11.4476 310.11 11.8051C310.646 12.1625 310.959 12.654 311.048 13.2796C311.138 13.8158 311.004 14.3966 310.646 15.0222L310.11 15.5584C309.663 15.9158 309.172 16.1392 308.636 16.2286C308.189 16.2286 307.697 16.3179 307.161 16.4967L301.665 17.9712C300.682 18.2393 299.699 18.5967 298.716 19.0435C297.733 19.4904 296.84 20.0265 296.035 20.6521C296.035 20.7414 295.812 20.9202 295.365 21.1883C294.918 21.367 294.605 21.5457 294.427 21.7244C293.712 22.4393 292.952 23.1096 292.148 23.7351C291.433 24.3607 290.718 25.0309 290.003 25.7458C289.556 26.1926 289.065 26.6394 288.529 27.0862C288.082 27.5331 287.59 27.9352 287.054 28.2927C286.786 28.9182 286.429 29.4991 285.982 30.0352C285.624 30.4821 285.267 30.9736 284.91 31.5097C284.195 32.4927 283.524 33.5651 282.899 34.7268C282.273 35.7992 281.737 36.9162 281.29 38.078C280.844 39.2397 280.486 40.3567 280.218 41.4291C279.95 42.4121 279.816 43.5291 279.816 44.7802C279.816 45.7632 279.771 46.7015 279.682 47.5952C279.592 48.4888 279.682 49.4271 279.95 50.4101C280.218 51.125 280.531 51.8399 280.888 52.5548C281.246 53.1804 281.603 53.8506 281.961 54.5655C282.944 56.3528 284.105 58.006 285.446 59.5252C286.876 60.955 288.573 62.0274 290.539 62.7423C290.897 62.921 291.344 63.0997 291.88 63.2785C292.416 63.3678 292.863 63.2785 293.22 63.0104C293.399 62.8316 293.533 62.6082 293.622 62.3401C293.712 61.9827 293.846 61.804 294.025 61.804C294.203 61.804 294.382 61.6252 294.561 61.2678C294.829 60.821 295.097 60.3741 295.365 59.9273C295.633 59.4805 295.857 59.0337 296.035 58.5869C296.303 58.1401 296.482 57.8273 296.571 57.6486C296.929 57.1124 297.42 56.5762 298.046 56.04C298.761 55.4145 299.208 54.8336 299.386 54.2974C299.476 53.94 299.61 53.7612 299.789 53.7612C299.967 53.7612 300.057 53.6272 300.057 53.3591C300.057 52.9123 300.369 52.4208 300.995 51.8846C301.62 51.2591 302.023 50.8123 302.201 50.5442C303.095 49.1143 304.167 47.7739 305.418 46.5228C305.597 46.3441 305.91 46.076 306.357 45.7185C306.804 45.3611 307.027 45.227 307.027 45.3164C307.027 44.9589 307.206 44.6015 307.563 44.244C308.01 43.8866 308.323 43.5738 308.501 43.3057C308.68 43.127 308.904 42.9036 309.172 42.6355C309.529 42.278 309.753 41.9653 309.842 41.6972C310.021 41.3397 310.289 41.0716 310.646 40.8929C311.093 40.6248 311.45 40.4014 311.719 40.2227C311.897 40.044 312.299 39.7759 312.925 39.4184C313.551 38.9716 313.863 38.6588 313.863 38.4801C313.863 38.3014 313.997 38.0333 314.265 37.6758C314.623 37.3184 314.891 37.0503 315.07 36.8716C315.517 36.246 316.008 35.6205 316.544 34.9949C317.17 34.3694 317.84 33.8332 318.555 33.3864L322.978 29.7671C323.693 29.1416 324.408 28.5607 325.123 28.0246C325.927 27.4884 326.687 26.8628 327.402 26.1479C327.581 26.1479 327.893 25.9692 328.34 25.6118C328.787 25.2543 329.1 24.9862 329.279 24.8075C329.457 24.5394 329.681 24.316 329.949 24.1373C330.306 23.9585 330.574 23.7798 330.753 23.6011C331.736 22.8862 332.719 22.2159 333.702 21.5904C334.774 20.9649 335.802 20.2946 336.785 19.5797C337.5 19.1329 338.17 18.7308 338.796 18.3733C339.511 17.9265 340.226 17.4797 340.94 17.0329C342.013 16.4073 343.085 15.8264 344.158 15.2903C345.319 14.6647 346.392 14.0392 347.375 13.4136C348.268 12.8775 349.207 12.4753 350.19 12.2072C351.173 11.8498 352.156 11.5817 353.139 11.403C354.032 11.2242 354.881 11.0008 355.685 10.7327C356.49 10.3753 357.339 10.1072 358.232 9.92846C359.483 9.48164 360.779 9.16887 362.12 8.99014C363.549 8.72205 364.89 8.58801 366.141 8.58801H368.822C369.358 8.76674 369.894 8.81142 370.43 8.72205C371.056 8.63269 371.637 8.67737 372.173 8.8561C372.62 8.8561 372.977 8.99014 373.245 9.25823C373.603 9.43696 374.005 9.52633 374.452 9.52633C374.63 9.52633 374.943 9.74973 375.39 10.1966C375.926 10.6434 376.373 10.9115 376.731 11.0008C376.82 11.0902 376.865 11.2242 376.865 11.403C376.954 11.4923 377.088 11.6264 377.267 11.8051L378.741 13.4136C379.009 13.6817 379.188 13.9945 379.277 14.3519C379.367 14.7094 379.501 15.0222 379.68 15.2903C379.68 15.469 379.814 15.7371 380.082 16.0945C380.439 16.3626 380.663 16.586 380.752 16.7648C380.931 17.0329 380.975 17.3009 380.886 17.569C380.886 17.8371 380.931 18.1052 381.02 18.3733C381.199 18.9095 381.333 19.4457 381.422 19.9819C381.511 20.518 381.556 21.0989 381.556 21.7244ZM376.865 24.4053C376.865 22.5287 376.641 20.7414 376.194 19.0435C375.837 17.3456 374.899 15.8711 373.379 14.62C372.307 13.7264 371.279 13.2796 370.296 13.2796C369.403 13.1902 368.33 13.1009 367.079 13.0115C366.275 13.0115 365.471 13.0562 364.666 13.1455C363.862 13.2349 363.058 13.3243 362.254 13.4136C362.075 13.5924 361.717 13.6817 361.181 13.6817C360.645 13.6817 360.288 13.7264 360.109 13.8158L357.562 14.62C356.937 14.7988 356.356 14.9775 355.819 15.1562C355.283 15.2456 354.702 15.3796 354.077 15.5584C353.183 16.0052 352.245 16.4073 351.262 16.7648C350.368 17.0329 349.43 17.3903 348.447 17.8371C348.09 18.0159 347.687 18.1946 347.241 18.3733C346.883 18.4627 346.57 18.6414 346.302 18.9095C346.124 19.0882 345.721 19.3563 345.096 19.7138C344.47 20.0712 344.068 20.2499 343.889 20.2499C342.906 20.9649 341.968 21.5904 341.074 22.1266C340.181 22.5734 339.243 23.1096 338.26 23.7351C337.545 24.0926 336.874 24.5841 336.249 25.2096C335.623 25.7458 334.953 26.2373 334.238 26.6841C332.004 28.2033 329.949 29.7225 328.072 31.2417C327 32.1353 325.883 32.9842 324.721 33.7885C323.649 34.5928 322.576 35.4864 321.504 36.4694C320.253 37.5418 319.091 38.6588 318.019 39.8205C316.946 40.8929 315.874 42.0546 314.802 43.3057C314.444 43.7525 313.953 44.1547 313.327 44.5121C312.702 44.8696 312.255 45.2717 311.987 45.7185C311.629 46.4334 311.182 47.059 310.646 47.5952C310.199 48.042 309.753 48.4888 309.306 48.9356C309.038 49.2037 308.591 49.5612 307.965 50.008C307.429 50.3654 307.161 50.7676 307.161 51.2144C306.893 51.6612 306.58 52.0633 306.223 52.4208C305.865 52.7783 305.508 53.1357 305.15 53.4932C304.435 54.3868 303.765 55.3251 303.14 56.3081C302.514 57.2017 301.844 58.0954 301.129 58.989C300.235 59.972 299.431 61.1337 298.716 62.4742C298.359 63.1891 298.225 63.5912 298.314 63.6806C298.403 63.77 298.806 63.904 299.52 64.0827C300.235 64.2615 300.95 64.3508 301.665 64.3508C302.38 64.3508 303.095 64.3508 303.81 64.3508C304.167 64.3508 304.525 64.3061 304.882 64.2168C305.24 64.038 305.642 63.9487 306.089 63.9487C306.804 63.77 307.474 63.7253 308.099 63.8146C308.725 63.904 309.395 63.9487 310.11 63.9487C310.199 63.77 310.423 63.6359 310.78 63.5466C311.227 63.4572 311.495 63.5465 311.585 63.8146C311.585 63.3678 311.942 63.1891 312.657 63.2785C313.372 63.3678 313.908 63.3678 314.265 63.2785C314.712 63.1891 315.159 63.0104 315.606 62.7423C316.053 62.4742 316.5 62.2955 316.946 62.2061L318.287 61.804C318.644 61.6252 319.002 61.4465 319.359 61.2678C319.717 61.0891 320.029 60.955 320.297 60.8656C320.476 60.7763 320.655 60.7763 320.834 60.8656C321.102 60.955 321.325 60.9103 321.504 60.7316L323.649 59.9273C324.095 59.7486 324.587 59.5252 325.123 59.2571C325.749 58.989 326.285 58.7656 326.732 58.5869C326.732 58.3188 327.178 58.006 328.072 57.6486C328.966 57.2911 329.502 57.023 329.681 56.8443C330.127 56.4868 330.53 56.1741 330.887 55.906C331.245 55.5485 331.647 55.2357 332.093 54.9677C332.272 54.7889 332.496 54.6996 332.764 54.6996C333.121 54.6102 333.389 54.4762 333.568 54.2974C333.747 54.1187 333.836 53.9847 333.836 53.8953C333.925 53.8059 334.059 53.7166 334.238 53.6272L335.042 53.091C335.4 52.7336 335.802 52.4208 336.249 52.1527C336.785 51.7953 336.919 51.3931 336.651 50.9463C335.489 49.5165 334.506 47.9079 333.702 46.1207C332.898 44.3334 332.853 42.5015 333.568 40.6248C333.747 40.0886 333.836 39.5971 333.836 39.1503C333.925 38.6141 334.059 38.1226 334.238 37.6758C334.238 37.229 334.462 36.8269 334.908 36.4694C335.355 36.112 335.713 35.7992 335.981 35.5311C336.428 35.0843 336.919 34.6821 337.455 34.3247C337.991 33.9672 338.617 33.7438 339.332 33.6545C339.511 33.6545 339.645 33.6992 339.734 33.7885C339.913 33.7885 340.091 33.7438 340.27 33.6545C340.985 33.4757 341.655 33.3417 342.281 33.2523C342.906 33.0736 343.532 33.163 344.158 33.5204C344.336 33.6098 344.426 33.6098 344.426 33.5204C344.515 33.4311 344.649 33.4311 344.828 33.5204C345.006 33.9672 345.275 34.28 345.632 34.4587C346.079 34.6375 346.481 34.8609 346.838 35.129C347.285 35.4864 347.598 36.0226 347.777 36.7375C347.955 37.4524 348.134 38.0333 348.313 38.4801C348.67 39.1056 348.76 40.044 348.581 41.295C348.492 42.4568 348.268 43.3504 347.911 43.9759C347.732 44.3334 347.553 44.6462 347.375 44.9143C347.285 45.1824 347.196 45.4951 347.107 45.8526C346.928 46.21 346.838 46.4781 346.838 46.6568C346.838 46.8356 346.749 47.059 346.57 47.3271C346.392 47.5058 346.213 47.7739 346.034 48.1313C345.945 48.4888 345.811 48.7569 345.632 48.9356C345.453 49.1144 345.185 49.3824 344.828 49.7399C344.56 50.008 344.738 50.2314 345.364 50.4101C345.989 50.5888 346.66 50.6782 347.375 50.6782C348.09 50.6782 348.804 50.6335 349.519 50.5442C350.056 50.4548 350.592 50.4101 351.128 50.4101C351.664 50.3208 352.2 50.1867 352.736 50.008C352.915 49.9186 353.228 49.8739 353.675 49.8739C354.211 49.8739 354.568 49.8293 354.747 49.7399C355.015 49.4718 355.462 49.2931 356.088 49.2037C356.713 49.1143 357.205 48.9803 357.562 48.8016C358.009 48.6228 358.456 48.4888 358.903 48.3994C359.349 48.2207 359.841 47.9973 360.377 47.7292C360.734 47.5505 361.047 47.3271 361.315 47.059C361.673 46.7909 362.075 46.5675 362.522 46.3888C362.79 46.1207 363.192 45.8079 363.728 45.4504C364.354 45.0036 364.845 44.6909 365.203 44.5121C365.739 44.0653 366.23 43.7079 366.677 43.4398C367.213 43.1717 367.705 42.7695 368.152 42.2334C368.42 41.7865 368.867 41.3844 369.492 41.027C369.939 40.6695 370.252 40.312 370.43 39.9546C370.698 39.5971 370.967 39.195 371.235 38.7482C371.413 38.5695 371.503 38.3907 371.503 38.212C371.592 37.9439 371.726 37.7205 371.905 37.5418C371.994 37.4524 372.084 37.4077 372.173 37.4077C372.352 37.4077 372.441 37.3184 372.441 37.1396C372.709 36.8716 372.933 36.5588 373.111 36.2013C373.29 35.8439 373.469 35.4864 373.647 35.129C373.916 34.8609 374.05 34.5481 374.05 34.1906C374.139 33.8332 374.318 33.5204 374.586 33.2523C374.765 32.8055 374.854 32.4034 374.854 32.0459C374.943 31.6885 375.077 31.2863 375.256 30.8395C375.435 30.5714 375.613 30.214 375.792 29.7671C376.06 29.231 376.105 28.8288 375.926 28.5607C375.837 28.382 375.837 28.248 375.926 28.1586C376.016 27.9799 376.105 27.8012 376.194 27.6224C376.552 27.265 376.731 26.7735 376.731 26.1479C376.731 25.433 376.775 24.8522 376.865 24.4053ZM343.889 42.0993C343.979 41.3844 344.023 40.6695 344.023 39.9546C344.113 39.1503 343.8 38.5695 343.085 38.212C342.638 38.0333 341.968 37.9439 341.074 37.9439C340.181 37.9439 339.555 38.078 339.198 38.3461C338.84 38.7929 338.528 39.3737 338.26 40.0886C337.991 40.8035 337.768 41.5631 337.589 42.3674C337.5 43.0823 337.545 43.7972 337.723 44.5121C337.902 45.227 338.26 45.8079 338.796 46.2547C339.153 46.5228 339.511 47.0143 339.868 47.7292C340.315 48.3548 340.762 48.2654 341.209 47.4611C341.387 47.193 341.655 46.8803 342.013 46.5228C342.37 46.1654 342.549 45.8079 342.549 45.4504C342.728 44.9143 342.906 44.3334 343.085 43.7079C343.264 43.0823 343.532 42.5461 343.889 42.0993Z" fill="white"/>
<path d="M413.771 79.0958C413.95 79.4532 414.084 79.8107 414.173 80.1682C414.262 80.4362 414.352 80.749 414.441 81.1065C414.531 81.732 414.218 82.4469 413.503 83.2512C412.877 84.0555 412.341 84.681 411.894 85.1278C411.448 85.5746 411.045 86.0661 410.688 86.6023C410.42 87.0491 410.062 87.496 409.616 87.9428C408.096 89.462 406.354 90.9365 404.388 92.3663C402.422 93.7067 400.277 94.3769 397.954 94.3769C396.524 94.5557 395.273 94.2876 394.2 93.5727C393.575 93.3046 393.128 93.1259 392.86 93.0365C392.592 92.8578 392.19 92.9918 391.654 93.4386C391.296 93.7961 390.983 94.1535 390.715 94.511C390.536 94.8684 390.224 95.1812 389.777 95.4493L388.168 97.1919C386.917 98.443 385.532 99.6494 384.013 100.811C382.583 101.883 381.019 102.822 379.321 103.626C378.875 103.805 378.517 104.028 378.249 104.296C377.981 104.564 377.623 104.743 377.177 104.832C376.64 104.922 376.104 105.011 375.568 105.101C375.121 105.279 374.63 105.413 374.094 105.503C373.289 105.681 372.262 105.681 371.011 105.503C369.759 105.324 368.776 104.922 368.062 104.296C366.453 103.224 365.336 101.705 364.71 99.7388C364.085 97.6834 363.996 95.7621 364.442 93.9748C365.068 91.1152 366.006 88.3002 367.257 85.53C368.598 82.7597 370.43 80.3916 372.753 78.4256C373.915 77.4426 375.077 76.4149 376.238 75.3425C377.4 74.1808 378.651 73.1531 379.992 72.2595C380.17 72.0808 380.438 71.9467 380.796 71.8574C381.243 71.6786 381.555 71.4999 381.734 71.3212C381.913 71.2318 382.047 71.1424 382.136 71.0531C382.315 70.8744 382.494 70.6956 382.672 70.5169C382.851 70.5169 383.03 70.5169 383.209 70.5169C383.387 70.5169 383.566 70.4722 383.745 70.3829L386.56 69.4445C387.275 69.1764 387.945 68.953 388.57 68.7743C389.196 68.5062 389.866 68.2828 390.581 68.1041C390.76 67.9254 391.207 67.9254 391.922 68.1041C392.726 68.1935 393.307 68.2381 393.664 68.2381C394.737 68.3275 395.228 69.0424 395.139 70.3829C395.139 70.5616 395.005 70.8744 394.737 71.3212C394.558 71.768 394.334 71.9914 394.066 71.9914C393.351 72.4382 392.458 72.6169 391.385 72.5276C390.313 72.4382 389.33 72.5276 388.436 72.7957C387.096 73.2425 385.666 73.868 384.147 74.6723C383.432 75.1191 382.717 75.5213 382.002 75.8787C381.287 76.2362 380.617 76.7277 379.992 77.3532C379.545 77.7107 379.143 78.0234 378.785 78.2915C378.428 78.5596 378.07 78.9171 377.713 79.3639C377.177 79.9894 376.596 80.5703 375.97 81.1065C375.434 81.5533 374.853 82.0895 374.228 82.715C373.96 83.1618 373.736 83.6533 373.557 84.1895C373.379 84.6363 373.111 85.0831 372.753 85.53C372.396 85.9768 372.038 86.4236 371.681 86.8704C371.413 87.2279 371.145 87.63 370.877 88.0768C370.608 88.7917 370.474 89.3726 370.474 89.8194L369.67 91.0258C369.402 91.3833 369.268 91.9195 369.268 92.6344C369.089 93.6174 368.866 94.5557 368.598 95.4493C368.419 96.3429 368.508 97.2813 368.866 98.2643C369.313 99.2473 369.894 99.9622 370.608 100.409C371.413 100.856 372.306 101.079 373.289 101.079C374.451 101.258 375.479 101.124 376.372 100.677C377.266 100.141 378.204 99.6494 379.187 99.2026C380.617 98.3983 381.913 97.5047 383.075 96.5217C384.236 95.4493 385.398 94.2876 386.56 93.0365C387.096 92.411 387.587 91.8301 388.034 91.2939C388.57 90.7577 389.062 90.1322 389.509 89.4173C389.509 89.2386 389.419 89.0151 389.241 88.747C389.062 88.3896 388.928 88.1215 388.839 87.9428C388.57 87.3172 388.347 86.7364 388.168 86.2002C387.99 85.664 387.811 85.0385 387.632 84.3236C387.453 83.2512 387.453 82.0448 387.632 80.7043C387.811 79.3639 388.258 78.2022 388.973 77.2192C389.33 76.7723 389.688 76.4149 390.045 76.1468C390.402 75.8787 390.849 75.5659 391.385 75.2085C392.19 74.7617 393.039 74.5829 393.932 74.6723C394.915 74.6723 395.764 74.8957 396.479 75.3425C397.283 75.7893 397.864 76.4149 398.222 77.2192C398.669 78.0234 398.847 78.9171 398.758 79.9001C398.758 80.8831 398.579 81.8661 398.222 82.8491C397.954 83.7427 397.596 84.6363 397.149 85.53C396.971 85.9768 396.703 86.3789 396.345 86.7364C396.077 87.0938 395.809 87.4513 395.541 87.8087C395.362 88.1662 395.273 88.5236 395.273 88.8811C395.362 89.2385 395.72 89.596 396.345 89.9535C397.06 90.4003 397.82 90.579 398.624 90.4896C399.428 90.3109 400.188 89.9981 400.903 89.5513C401.26 89.3726 401.618 89.1939 401.975 89.0151C402.332 88.8364 402.601 88.5683 402.779 88.2109C402.958 87.9428 403.226 87.764 403.584 87.6747C403.941 87.5853 404.209 87.4513 404.388 87.2726L405.728 85.9321C405.907 85.7534 406.13 85.5746 406.399 85.3959C406.667 85.1278 406.845 84.9044 406.935 84.7257C407.113 84.4576 407.292 84.1448 407.471 83.7874C407.65 83.3406 407.918 83.0278 408.275 82.8491C408.722 82.6703 409.079 82.3576 409.347 81.9107C409.616 81.3746 409.839 80.9277 410.018 80.5703C410.554 79.8554 411.045 79.3639 411.492 79.0958C412.028 78.8277 412.788 78.8277 413.771 79.0958ZM393.664 82.1788C393.843 81.8214 394.022 81.3299 394.2 80.7043C394.468 80.0788 394.379 79.6767 393.932 79.4979C393.307 79.1405 392.815 79.3639 392.458 80.1682C392.1 80.7937 392.011 81.598 392.19 82.581C392.279 82.7597 392.324 83.0725 392.324 83.5193C392.324 83.9661 392.413 84.2789 392.592 84.4576C393.039 83.6533 393.396 82.8937 393.664 82.1788Z" fill="white"/>
<path d="M475.424 36.4694C476.318 38.078 476.229 39.4631 475.156 40.6248C474.799 41.0716 474.486 41.5631 474.218 42.0993C474.039 42.6355 473.771 43.1717 473.414 43.7079C472.967 44.5121 472.475 45.3164 471.939 46.1207C471.492 46.9249 471.001 47.6845 470.465 48.3994C470.018 48.9356 469.661 49.4718 469.392 50.008C469.214 50.5442 468.946 51.0803 468.588 51.6165C468.231 52.1527 467.873 52.6889 467.516 53.2251C467.248 53.7613 466.98 54.2974 466.712 54.8336C465.729 56.0847 464.88 57.3805 464.165 58.7209C463.539 60.0614 462.78 61.3571 461.886 62.6082C461.171 63.5912 460.501 64.6189 459.875 65.6913C459.339 66.7636 458.713 67.836 457.999 68.9084C457.194 70.0701 456.435 71.3212 455.72 72.6616C455.005 74.0021 454.29 75.2978 453.575 76.5489C452.95 77.8 452.235 79.0511 451.43 80.3022C450.715 81.5533 450.001 82.8044 449.286 84.0555C448.839 84.9491 448.392 85.8427 447.945 86.7364C447.498 87.5406 446.962 88.3449 446.337 89.1492C446.069 89.596 445.756 90.0875 445.398 90.6237C445.041 91.1599 444.773 91.696 444.594 92.2322C444.237 93.0365 443.834 93.8408 443.388 94.645C443.03 95.3599 442.717 96.1195 442.449 96.9238C442.092 97.7281 441.779 98.443 441.511 99.0685C441.332 99.6941 441.645 100.32 442.449 100.945C443.432 101.66 444.326 101.883 445.13 101.615C445.935 101.258 446.783 100.856 447.677 100.409C448.392 100.141 449.018 99.8728 449.554 99.6047C450.179 99.3366 450.76 98.9792 451.296 98.5323C452.637 97.5493 453.888 96.5664 455.05 95.5834C456.301 94.6004 457.507 93.6174 458.669 92.6344C459.652 91.6514 460.635 90.713 461.618 89.8194C462.69 88.9258 463.673 87.9875 464.567 87.0045C465.282 86.2002 465.997 85.3512 466.712 84.4576C467.426 83.564 468.141 82.7597 468.856 82.0448C469.303 81.598 469.705 81.0171 470.063 80.3022C470.509 79.4979 471.09 79.0064 471.805 78.8277C472.699 78.649 473.414 79.0064 473.95 79.9001C474.576 80.7043 474.576 81.4639 473.95 82.1788C472.967 83.2512 472.029 84.3682 471.135 85.53C470.331 86.6023 469.437 87.6747 468.454 88.747L464.165 93.1705C463.539 93.7961 462.914 94.4216 462.288 95.0472C461.752 95.6727 461.126 96.2536 460.411 96.7898C459.965 97.2366 459.473 97.6834 458.937 98.1302C458.401 98.4877 457.909 98.8898 457.462 99.3366C457.105 99.6941 456.658 100.141 456.122 100.677C455.675 101.213 455.228 101.571 454.782 101.749C454.335 101.928 453.843 102.152 453.307 102.42C452.86 102.688 452.413 102.956 451.967 103.224C451.162 103.671 450.269 104.162 449.286 104.698C448.303 105.235 447.275 105.637 446.203 105.905C445.22 106.173 444.192 106.262 443.12 106.173C442.047 106.084 441.064 105.681 440.171 104.967C439.724 104.52 439.277 104.118 438.83 103.76C438.383 103.403 437.981 102.956 437.624 102.42C436.998 101.258 436.819 100.096 437.088 98.9345C437.356 97.7728 437.713 96.611 438.16 95.4493C437.713 95.36 437.132 95.5834 436.417 96.1195C435.792 96.6557 435.345 97.0578 435.077 97.3259C434.809 97.594 434.496 97.8174 434.139 97.9962C433.87 98.1749 433.602 98.3536 433.334 98.5323C432.083 99.5153 430.743 100.588 429.313 101.749C427.883 102.822 426.364 103.76 424.755 104.564C423.147 105.279 421.538 105.681 419.93 105.771C418.321 105.95 416.713 105.458 415.104 104.296C414.657 103.939 414.255 103.537 413.898 103.09C413.63 102.554 413.406 102.062 413.227 101.615C412.959 101.079 412.87 100.588 412.959 100.141C413.138 99.6941 413.138 99.2473 412.959 98.8004C412.691 98.0855 412.602 97.4153 412.691 96.7898C412.781 96.1642 412.915 95.494 413.093 94.7791C413.54 92.9918 414.121 91.2939 414.836 89.6854C415.64 88.0768 416.534 86.513 417.517 84.9938C417.517 84.8151 417.696 84.547 418.053 84.1895C418.411 83.8321 418.634 83.564 418.723 83.3852C418.902 83.2065 419.081 82.9831 419.26 82.715C419.438 82.4469 419.617 82.1788 419.796 81.9107C420.243 81.1958 420.779 80.5703 421.404 80.0341C422.03 79.4086 422.7 78.783 423.415 78.1575C424.13 77.6213 424.711 77.1298 425.158 76.683C425.694 76.1468 426.319 75.6553 427.034 75.2085C427.57 74.7617 428.062 74.4042 428.509 74.1361C429.045 73.7787 429.581 73.4659 430.117 73.1978L431.994 72.2595C432.619 71.902 433.156 71.5446 433.602 71.1871C434.139 70.7403 434.764 70.3829 435.479 70.1148C436.194 69.936 436.909 69.7573 437.624 69.5786C438.339 69.3105 439.054 69.0871 439.768 68.9084C440.93 68.7296 442.137 68.6849 443.388 68.7743C444.728 68.7743 445.979 68.953 447.141 69.3105C447.766 69.4892 448.347 69.802 448.884 70.2488C449.509 70.6956 450.09 71.0978 450.626 71.4552C450.984 70.919 451.296 70.3829 451.564 69.8467C451.922 69.2211 452.324 68.6403 452.771 68.1041L454.111 66.4955C454.469 66.1381 454.692 65.7806 454.782 65.4232C454.871 64.9764 455.05 64.5742 455.318 64.2168C455.496 63.77 455.764 63.3678 456.122 63.0104C456.479 62.5635 456.792 62.1614 457.06 61.804C457.418 61.4465 457.641 61.0444 457.73 60.5976C457.909 60.2401 458.088 59.972 458.267 59.7933C458.445 59.5252 458.624 59.2571 458.803 58.989C459.339 58.1847 459.831 57.3805 460.277 56.5762C460.724 55.7719 461.216 54.9677 461.752 54.1634C461.931 53.8953 462.109 53.5825 462.288 53.2251C462.556 52.8676 462.824 52.5548 463.092 52.2868C463.36 52.0187 463.584 51.6612 463.763 51.2144C463.941 50.7676 464.12 50.3654 464.299 50.008C464.746 49.2931 465.192 48.5782 465.639 47.8633C466.175 47.059 466.622 46.2994 466.98 45.5845C467.248 44.8696 467.56 44.1994 467.918 43.5738C468.365 42.9483 468.812 42.3227 469.258 41.6972C469.526 41.2504 469.795 40.8035 470.063 40.3567C470.331 39.9099 470.644 39.5078 471.001 39.1503C471.358 38.7035 471.627 38.2567 471.805 37.8099C471.984 37.2737 472.341 36.8716 472.878 36.6035C473.146 36.246 473.548 36.1566 474.084 36.3354C474.62 36.4247 475.067 36.4694 475.424 36.4694ZM446.605 79.9001C446.783 79.2745 446.962 78.6937 447.141 78.1575C447.32 77.6213 447.409 77.0404 447.409 76.4149C447.409 75.4319 447.052 74.717 446.337 74.2702C445.711 73.734 444.907 73.3765 443.924 73.1978C442.941 73.0191 441.913 73.0191 440.841 73.1978C439.858 73.2872 439.054 73.4212 438.428 73.5999C437.177 74.0468 436.015 74.5829 434.943 75.2085C433.87 75.834 432.753 76.5042 431.592 77.2192C430.519 77.8447 429.536 78.5596 428.643 79.3639C427.749 80.0788 426.811 80.8831 425.828 81.7767C424.845 82.6703 423.996 83.6533 423.281 84.7257C422.566 85.7087 421.806 86.7364 421.002 87.8087C420.287 88.613 419.662 89.462 419.125 90.3556C418.679 91.2492 418.321 92.1875 418.053 93.1705C417.964 93.528 417.785 94.0642 417.517 94.7791C417.338 95.494 417.204 96.2536 417.115 97.0579C417.025 97.8621 417.025 98.577 417.115 99.2026C417.204 99.8281 417.472 100.275 417.919 100.543C418.902 101.079 419.885 101.213 420.868 100.945C421.851 100.677 422.834 100.32 423.817 99.8728C424.8 99.426 425.604 98.9345 426.23 98.3983C426.855 97.8621 427.57 97.2813 428.375 96.6557C428.821 96.3876 429.268 96.1642 429.715 95.9855C430.162 95.7174 430.609 95.4046 431.055 95.0472C431.145 94.8685 431.368 94.6897 431.726 94.511C432.173 94.2429 432.396 94.0195 432.396 93.8408C433.29 93.2152 434.139 92.5897 434.943 91.9641C435.747 91.3386 436.551 90.6684 437.356 89.9535C438.964 88.5236 440.528 86.9598 442.047 85.2619C443.566 83.4746 445.086 81.6873 446.605 79.9001Z" fill="white"/>
<path d="M481.083 94.9131C481.083 95.8068 481.127 96.611 481.217 97.3259C481.395 98.0408 481.753 98.7558 482.289 99.4707C482.468 99.6494 482.646 99.9622 482.825 100.409C483.093 100.766 483.361 100.99 483.629 101.079C483.987 101.079 484.121 101.169 484.032 101.347C484.032 101.437 484.21 101.481 484.568 101.481C484.836 101.481 485.327 101.571 486.042 101.749C487.293 102.107 488.544 102.062 489.796 101.615C491.136 101.169 492.432 100.722 493.683 100.275C494.308 99.9175 494.845 99.5154 495.291 99.0685C495.828 98.6217 496.364 98.1749 496.9 97.7281C497.257 97.5493 497.615 97.3706 497.972 97.1919C498.33 96.9238 498.643 96.6557 498.911 96.3876C499.536 95.7621 500.162 95.2706 500.787 94.9131C501.413 94.4663 502.038 94.0195 502.664 93.5727C503.468 92.9471 504.183 92.3216 504.809 91.696C505.524 90.9811 506.238 90.3109 506.953 89.6854C508.562 88.2555 510.081 86.7364 511.511 85.1278C511.868 84.5916 512.315 84.1448 512.851 83.7874C513.119 83.6087 513.253 83.4746 513.253 83.3852C513.253 83.2065 513.343 83.0278 513.522 82.8491C513.79 82.8491 514.013 82.715 514.192 82.4469C514.371 82.0895 514.683 81.6873 515.13 81.2405C515.666 80.7043 516.113 80.2575 516.471 79.9001C516.739 79.5426 516.962 79.3192 517.141 79.2298C517.409 79.0511 517.766 78.9617 518.213 78.9617C518.839 78.9617 519.241 79.1405 519.42 79.4979C519.598 79.766 519.732 80.2128 519.822 80.8384C519.911 81.2852 519.822 81.7767 519.554 82.3129C519.286 82.8491 518.928 83.4299 518.481 84.0555C518.124 84.5916 517.677 85.1278 517.141 85.664C516.694 86.2002 516.292 86.647 515.934 87.0045C514.147 88.8811 512.27 90.713 510.304 92.5003C508.338 94.1982 506.417 95.8961 504.541 97.594C503.826 98.2196 503.066 98.8004 502.262 99.3366C501.547 99.7834 500.787 100.32 499.983 100.945C499.357 101.392 498.777 101.883 498.24 102.42C497.704 102.866 497.079 103.269 496.364 103.626C495.649 104.073 494.845 104.475 493.951 104.832C493.147 105.101 492.342 105.458 491.538 105.905C491.002 106.173 490.421 106.262 489.796 106.173C489.259 106.173 488.634 106.262 487.919 106.441C487.383 106.53 486.757 106.575 486.042 106.575C485.327 106.664 484.657 106.575 484.032 106.307C483.227 105.86 482.378 105.413 481.485 104.967C480.68 104.52 479.921 103.939 479.206 103.224C479.206 102.956 478.983 102.643 478.536 102.286C478.178 101.928 477.91 101.571 477.731 101.213L476.659 99.0685C476.48 98.1749 476.302 97.3706 476.123 96.6557C476.034 95.8514 475.989 94.9578 475.989 93.9748C475.989 91.9194 476.302 89.9535 476.927 88.0768C477.106 87.5406 477.285 87.0045 477.463 86.4683C477.642 85.9321 477.821 85.3959 478 84.8597C478.178 84.2342 478.402 83.7427 478.67 83.3852C478.938 83.0278 479.295 82.581 479.742 82.0448C480.457 81.0618 481.127 80.0788 481.753 79.0958C482.468 78.1128 483.272 77.1745 484.166 76.2808C486.31 74.2255 488.679 72.3042 491.27 70.5169C493.862 68.7296 496.766 67.836 499.983 67.836C500.966 67.836 501.994 68.0594 503.066 68.5062C504.138 68.8637 504.943 69.4445 505.479 70.2488C505.747 70.6956 505.97 71.0531 506.149 71.3212C506.328 71.4999 506.507 71.8127 506.685 72.2595L506.953 73.868C506.953 74.1361 506.909 74.4042 506.819 74.6723C506.73 74.851 506.685 75.0744 506.685 75.3425C506.685 77.1298 506.194 78.8277 505.211 80.4362C504.317 82.0448 503.245 83.4746 501.994 84.7257C499.402 87.3172 496.498 89.596 493.281 91.562C492.476 92.0088 491.672 92.411 490.868 92.7684C490.064 93.0365 489.215 93.2599 488.321 93.4386C487.07 93.6174 485.864 93.9301 484.702 94.3769C483.54 94.7344 482.334 94.9131 481.083 94.9131ZM486.042 89.4173C486.847 89.4173 487.561 89.2832 488.187 89.0151C488.813 88.6577 489.527 88.3896 490.332 88.2109C490.957 88.1215 491.493 87.8534 491.94 87.4066C492.476 86.8704 493.057 86.513 493.683 86.3342C494.487 85.9768 495.291 85.4406 496.096 84.7257C496.9 84.0108 497.615 83.3406 498.24 82.715C498.955 82.0001 499.67 81.1958 500.385 80.3022C501.189 79.4086 501.815 78.4703 502.262 77.4873C502.44 76.8617 502.575 76.1915 502.664 75.4766C502.753 74.6723 502.664 74.0021 502.396 73.4659C501.949 72.9297 501.368 72.5723 500.653 72.3935C499.938 72.1254 499.268 72.0361 498.643 72.1254C496.23 72.3935 494.13 73.3319 492.342 74.9404C490.555 76.4596 488.768 77.9341 486.981 79.3639C486.623 79.632 486.31 79.9894 486.042 80.4362C485.774 80.7937 485.506 81.1512 485.238 81.5086C484.97 81.9554 484.747 82.3576 484.568 82.715C484.478 83.0725 484.21 83.4299 483.764 83.7874C483.585 83.9661 483.495 84.1448 483.495 84.3236C483.495 84.4129 483.406 84.547 483.227 84.7257C482.87 84.9044 482.557 85.2619 482.289 85.7981C482.11 86.2449 481.932 86.7811 481.753 87.4066C481.663 88.0321 481.574 88.613 481.485 89.1492C481.395 89.6854 481.351 90.0875 481.351 90.3556C482.155 90.445 482.915 90.4003 483.629 90.2215C484.434 89.9535 485.238 89.6854 486.042 89.4173Z" fill="white"/>
<path d="M562.95 79.0958C563.754 80.5256 563.709 81.8214 562.816 82.9831C561.922 84.1448 560.984 85.2172 560.001 86.2002L554.773 91.696C552.807 93.7514 550.752 95.8514 548.607 97.9962C546.552 100.141 544.317 102.062 541.905 103.76C539.045 105.726 536.007 106.307 532.79 105.503C531.807 105.145 530.958 104.654 530.243 104.028C529.528 103.403 529.126 102.509 529.036 101.347C529.036 100.811 528.947 100.32 528.768 99.8728C528.679 99.3366 528.723 98.8451 528.902 98.3983C528.902 98.1302 528.902 97.7281 528.902 97.1919C528.992 96.6557 529.126 96.2983 529.304 96.1195C529.483 95.9408 529.617 95.628 529.706 95.1812C529.885 94.7344 530.064 94.3769 530.243 94.1089C530.421 93.662 530.6 93.2599 530.779 92.9024C531.047 92.4556 531.36 92.0088 531.717 91.562C532.521 90.4003 533.326 89.2832 534.13 88.2109C535.024 87.0491 535.962 85.9768 536.945 84.9938C537.839 84.1895 538.643 83.3406 539.358 82.4469C540.162 81.4639 541.011 80.5256 541.905 79.632C542.262 79.2745 542.62 78.9171 542.977 78.5596C543.334 78.2022 543.647 77.8 543.915 77.3532C544.183 76.7277 544.139 76.3255 543.781 76.1468C543.513 75.8787 543.111 75.6553 542.575 75.4766L539.224 75.0744C538.777 75.0744 538.285 75.0298 537.749 74.9404C537.213 74.7617 536.811 74.7617 536.543 74.9404C535.917 75.3872 535.381 75.9234 534.934 76.5489C534.577 77.0851 534.219 77.666 533.862 78.2915C533.594 78.7383 533.236 79.1405 532.79 79.4979C532.432 79.8554 532.075 80.2575 531.717 80.7043C531.092 81.598 530.421 82.4469 529.706 83.2512C528.992 84.0555 528.053 84.1001 526.892 83.3852C526.266 82.9384 525.953 82.4469 525.953 81.9107C526.043 81.3746 526.266 80.8384 526.623 80.3022C526.981 79.6767 527.383 79.1405 527.83 78.6937C528.366 78.1575 528.813 77.666 529.17 77.2192C529.617 76.7723 529.975 76.2808 530.243 75.7447C530.6 75.2085 531.002 74.717 531.449 74.2702C531.896 73.8233 532.209 73.4212 532.387 73.0638C532.655 72.7063 532.611 72.1701 532.253 71.4552L531.315 70.1148V68.2381C531.315 67.6126 531.315 67.0317 531.315 66.4955C531.404 65.87 531.538 65.2891 531.717 64.753C531.985 64.3061 532.387 63.77 532.924 63.1444C533.549 62.4295 534.219 61.804 534.934 61.2678C535.649 60.7316 536.364 60.4188 537.079 60.3295C537.883 60.2401 538.553 60.5082 539.09 61.1337C539.536 61.7593 539.76 62.2955 539.76 62.7423C539.849 63.1891 539.894 63.77 539.894 64.4849C539.983 65.021 540.073 65.6019 540.162 66.2275C540.251 66.7636 540.251 67.2998 540.162 67.836C540.073 68.2828 539.805 68.7743 539.358 69.3105C539 69.8467 539.045 70.2041 539.492 70.3829C539.671 70.4722 539.983 70.6063 540.43 70.785C540.877 70.8744 541.19 70.8744 541.368 70.785C541.547 70.6063 542.039 70.6063 542.843 70.785C543.647 70.9637 544.183 71.0978 544.451 71.1871C545.524 71.4552 546.462 71.8573 547.266 72.3935C547.803 72.8403 548.205 73.4212 548.473 74.1361C548.741 74.7617 548.786 75.3425 548.607 75.8787C548.339 76.9511 548.071 77.8894 547.803 78.6937C547.624 79.4086 547.177 80.1235 546.462 80.8384C545.747 81.5533 545.122 82.2235 544.586 82.8491C544.049 83.4746 543.424 84.1001 542.709 84.7257C542.262 85.0831 541.949 85.4853 541.771 85.9321C541.592 86.2896 541.279 86.6023 540.832 86.8704C540.296 87.3172 539.76 87.8087 539.224 88.3449C538.777 88.8811 538.375 89.462 538.017 90.0875C537.57 90.9811 537.034 91.7854 536.409 92.5003C535.783 93.1259 535.247 93.8854 534.8 94.7791C534.621 95.1365 534.353 95.628 533.996 96.2536C533.728 96.7898 533.504 97.3706 533.326 97.9962C533.147 98.5324 533.058 99.1132 533.058 99.7388C533.147 100.275 533.46 100.722 533.996 101.079C534.979 101.615 536.051 101.705 537.213 101.347C538.375 100.9 539.313 100.32 540.028 99.6047C540.475 99.2473 540.922 98.8898 541.368 98.5323C541.815 98.1749 542.262 97.7728 542.709 97.3259C542.888 97.1472 543.111 97.0132 543.379 96.9238C543.647 96.7451 543.871 96.5664 544.049 96.3876C545.032 95.2259 546.149 94.1535 547.4 93.1705C548.652 92.1875 549.769 91.0705 550.752 89.8194C551.198 89.2832 551.645 88.747 552.092 88.2109C552.628 87.6747 553.12 87.1385 553.567 86.6023L556.65 83.3852L558.258 81.6426C558.437 81.4639 558.616 81.2852 558.794 81.1065C558.973 80.9277 559.107 80.749 559.196 80.5703C559.733 79.8554 560.224 79.3639 560.671 79.0958C561.207 78.8277 561.967 78.8277 562.95 79.0958Z" fill="white"/>
</svg>
